<?xml version="1.0" standalone="no"?>
 <!DOCTYPE svg PUBLIC "-//W3C//DTD SVG 1.1//EN" 
 "http://www.w3.org/Graphics/SVG/1.1/DTD/svg11.dtd"> 
<svg
  xmlns:svg="http://www.w3.org/2000/svg"
  xmlns="http://www.w3.org/2000/svg"
  xmlns:xlink="http://www.w3.org/1999/xlink"
  version="1.1"
  width="297.0022mm" height="210.0072mm" viewBox="0.0000 0.0000 297.0022 210.0072">
<title>SVG Image created as old.svg date 2025/12/30 20:26:01 </title>
  <desc>Image generated by PCBNEW </desc>
<g style="fill:#000000; fill-opacity:1.0000;stroke:#000000; stroke-opacity:1.0000;
stroke-linecap:round; stroke-linejoin:round;"
 transform="translate(0 0) scale(1 1)">
</g>
<g style="fill:none; 
stroke:#C872AB; stroke-width:0.1500; stroke-opacity:1; 
stroke-linecap:round; stroke-linejoin:round;">
<path d="M177.0022 166.0072
L285.0022 166.0072
L285.0022 198.0072
L177.0022 198.0072
L177.0022 166.0072
" />
</g>
<g style="fill:none; 
stroke:#C872AB; stroke-width:0.1500; stroke-opacity:1; 
stroke-linecap:round; stroke-linejoin:round;">
<path d="M10.0000 10.0000
L287.0022 10.0000
L287.0022 200.0072
L10.0000 200.0072
L10.0000 10.0000
" />
</g>
<g style="fill:none; 
stroke:#C872AB; stroke-width:0.1500; stroke-opacity:1; 
stroke-linecap:round; stroke-linejoin:round;">
<path d="M12.0000 12.0000
L285.0022 12.0000
L285.0022 198.0072
L12.0000 198.0072
L12.0000 12.0000
" />
</g>
<g style="fill:none; 
stroke:#C872AB; stroke-width:0.1500; stroke-opacity:1; 
stroke-linecap:round; stroke-linejoin:round;">
<path d="M60.0000 12.0000
L60.0000 10.0000
" />
</g>
<g style="fill:none; 
stroke:#C872AB; stroke-width:0.1500; stroke-opacity:1; 
stroke-linecap:round; stroke-linejoin:round;">
<path d="M110.0000 12.0000
L110.0000 10.0000
" />
</g>
<g style="fill:none; 
stroke:#C872AB; stroke-width:0.1500; stroke-opacity:1; 
stroke-linecap:round; stroke-linejoin:round;">
<path d="M160.0000 12.0000
L160.0000 10.0000
" />
</g>
<g style="fill:none; 
stroke:#C872AB; stroke-width:0.1500; stroke-opacity:1; 
stroke-linecap:round; stroke-linejoin:round;">
<path d="M210.0000 12.0000
L210.0000 10.0000
" />
</g>
<g style="fill:none; 
stroke:#C872AB; stroke-width:0.1500; stroke-opacity:1; 
stroke-linecap:round; stroke-linejoin:round;">
<path d="M260.0000 12.0000
L260.0000 10.0000
" />
</g>
<g style="fill:none; 
stroke:#C872AB; stroke-width:0.1500; stroke-opacity:1; 
stroke-linecap:round; stroke-linejoin:round;">
<text x="35.0000" y="11.6500"
textLength="1.4281" font-size="1.7333" lengthAdjust="spacingAndGlyphs"
text-anchor="start" opacity="0" stroke-opacity="0">1</text>
<g class="stroked-text"><desc>1</desc>
<path d="M36.0892 11.5936
L35.3463 11.5936
" />
<path d="M35.7177 11.5936
L35.7177 10.2936
" />
<path d="M35.7177 10.2936
L35.5939 10.4793
" />
<path d="M35.5939 10.4793
L35.4701 10.6031
" />
<path d="M35.4701 10.6031
L35.3463 10.6650
" />
</g></g>
<g style="fill:none; 
stroke:#C872AB; stroke-width:0.1500; stroke-opacity:1; 
stroke-linecap:round; stroke-linejoin:round;">
<text x="85.0000" y="11.6500"
textLength="1.4281" font-size="1.7333" lengthAdjust="spacingAndGlyphs"
text-anchor="start" opacity="0" stroke-opacity="0">2</text>
<g class="stroked-text"><desc>2</desc>
<path d="M85.3463 10.4174
L85.4082 10.3555
" />
<path d="M85.4082 10.3555
L85.5320 10.2936
" />
<path d="M85.5320 10.2936
L85.8415 10.2936
" />
<path d="M85.8415 10.2936
L85.9654 10.3555
" />
<path d="M85.9654 10.3555
L86.0273 10.4174
" />
<path d="M86.0273 10.4174
L86.0892 10.5412
" />
<path d="M86.0892 10.5412
L86.0892 10.6650
" />
<path d="M86.0892 10.6650
L86.0273 10.8507
" />
<path d="M86.0273 10.8507
L85.2844 11.5936
" />
<path d="M85.2844 11.5936
L86.0892 11.5936
" />
</g></g>
<g style="fill:none; 
stroke:#C872AB; stroke-width:0.1500; stroke-opacity:1; 
stroke-linecap:round; stroke-linejoin:round;">
<text x="135.0000" y="11.6500"
textLength="1.4281" font-size="1.7333" lengthAdjust="spacingAndGlyphs"
text-anchor="start" opacity="0" stroke-opacity="0">3</text>
<g class="stroked-text"><desc>3</desc>
<path d="M135.2844 10.2936
L136.0892 10.2936
" />
<path d="M136.0892 10.2936
L135.6558 10.7888
" />
<path d="M135.6558 10.7888
L135.8415 10.7888
" />
<path d="M135.8415 10.7888
L135.9654 10.8507
" />
<path d="M135.9654 10.8507
L136.0273 10.9127
" />
<path d="M136.0273 10.9127
L136.0892 11.0365
" />
<path d="M136.0892 11.0365
L136.0892 11.3460
" />
<path d="M136.0892 11.3460
L136.0273 11.4698
" />
<path d="M136.0273 11.4698
L135.9654 11.5317
" />
<path d="M135.9654 11.5317
L135.8415 11.5936
" />
<path d="M135.8415 11.5936
L135.4701 11.5936
" />
<path d="M135.4701 11.5936
L135.3463 11.5317
" />
<path d="M135.3463 11.5317
L135.2844 11.4698
" />
</g></g>
<g style="fill:none; 
stroke:#C872AB; stroke-width:0.1500; stroke-opacity:1; 
stroke-linecap:round; stroke-linejoin:round;">
<text x="185.0000" y="11.6500"
textLength="1.4281" font-size="1.7333" lengthAdjust="spacingAndGlyphs"
text-anchor="start" opacity="0" stroke-opacity="0">4</text>
<g class="stroked-text"><desc>4</desc>
<path d="M185.9654 10.7269
L185.9654 11.5936
" />
<path d="M185.6558 10.2317
L185.3463 11.1603
" />
<path d="M185.3463 11.1603
L186.1511 11.1603
" />
</g></g>
<g style="fill:none; 
stroke:#C872AB; stroke-width:0.1500; stroke-opacity:1; 
stroke-linecap:round; stroke-linejoin:round;">
<text x="235.0000" y="11.6500"
textLength="1.4281" font-size="1.7333" lengthAdjust="spacingAndGlyphs"
text-anchor="start" opacity="0" stroke-opacity="0">5</text>
<g class="stroked-text"><desc>5</desc>
<path d="M236.0273 10.2936
L235.4082 10.2936
" />
<path d="M235.4082 10.2936
L235.3463 10.9127
" />
<path d="M235.3463 10.9127
L235.4082 10.8507
" />
<path d="M235.4082 10.8507
L235.5320 10.7888
" />
<path d="M235.5320 10.7888
L235.8415 10.7888
" />
<path d="M235.8415 10.7888
L235.9654 10.8507
" />
<path d="M235.9654 10.8507
L236.0273 10.9127
" />
<path d="M236.0273 10.9127
L236.0892 11.0365
" />
<path d="M236.0892 11.0365
L236.0892 11.3460
" />
<path d="M236.0892 11.3460
L236.0273 11.4698
" />
<path d="M236.0273 11.4698
L235.9654 11.5317
" />
<path d="M235.9654 11.5317
L235.8415 11.5936
" />
<path d="M235.8415 11.5936
L235.5320 11.5936
" />
<path d="M235.5320 11.5936
L235.4082 11.5317
" />
<path d="M235.4082 11.5317
L235.3463 11.4698
" />
</g></g>
<g style="fill:none; 
stroke:#C872AB; stroke-width:0.1500; stroke-opacity:1; 
stroke-linecap:round; stroke-linejoin:round;">
<text x="285.0000" y="11.6500"
textLength="1.4281" font-size="1.7333" lengthAdjust="spacingAndGlyphs"
text-anchor="start" opacity="0" stroke-opacity="0">6</text>
<g class="stroked-text"><desc>6</desc>
<path d="M285.9654 10.2936
L285.7177 10.2936
" />
<path d="M285.7177 10.2936
L285.5939 10.3555
" />
<path d="M285.5939 10.3555
L285.5320 10.4174
" />
<path d="M285.5320 10.4174
L285.4082 10.6031
" />
<path d="M285.4082 10.6031
L285.3463 10.8507
" />
<path d="M285.3463 10.8507
L285.3463 11.3460
" />
<path d="M285.3463 11.3460
L285.4082 11.4698
" />
<path d="M285.4082 11.4698
L285.4701 11.5317
" />
<path d="M285.4701 11.5317
L285.5939 11.5936
" />
<path d="M285.5939 11.5936
L285.8415 11.5936
" />
<path d="M285.8415 11.5936
L285.9654 11.5317
" />
<path d="M285.9654 11.5317
L286.0273 11.4698
" />
<path d="M286.0273 11.4698
L286.0892 11.3460
" />
<path d="M286.0892 11.3460
L286.0892 11.0365
" />
<path d="M286.0892 11.0365
L286.0273 10.9127
" />
<path d="M286.0273 10.9127
L285.9654 10.8507
" />
<path d="M285.9654 10.8507
L285.8415 10.7888
" />
<path d="M285.8415 10.7888
L285.5939 10.7888
" />
<path d="M285.5939 10.7888
L285.4701 10.8507
" />
<path d="M285.4701 10.8507
L285.4082 10.9127
" />
<path d="M285.4082 10.9127
L285.3463 11.0365
" />
</g></g>
<g style="fill:none; 
stroke:#C872AB; stroke-width:0.1500; stroke-opacity:1; 
stroke-linecap:round; stroke-linejoin:round;">
<path d="M60.0000 198.0072
L60.0000 200.0072
" />
</g>
<g style="fill:none; 
stroke:#C872AB; stroke-width:0.1500; stroke-opacity:1; 
stroke-linecap:round; stroke-linejoin:round;">
<path d="M110.0000 198.0072
L110.0000 200.0072
" />
</g>
<g style="fill:none; 
stroke:#C872AB; stroke-width:0.1500; stroke-opacity:1; 
stroke-linecap:round; stroke-linejoin:round;">
<path d="M160.0000 198.0072
L160.0000 200.0072
" />
</g>
<g style="fill:none; 
stroke:#C872AB; stroke-width:0.1500; stroke-opacity:1; 
stroke-linecap:round; stroke-linejoin:round;">
<path d="M210.0000 198.0072
L210.0000 200.0072
" />
</g>
<g style="fill:none; 
stroke:#C872AB; stroke-width:0.1500; stroke-opacity:1; 
stroke-linecap:round; stroke-linejoin:round;">
<path d="M260.0000 198.0072
L260.0000 200.0072
" />
</g>
<g style="fill:none; 
stroke:#C872AB; stroke-width:0.1500; stroke-opacity:1; 
stroke-linecap:round; stroke-linejoin:round;">
<text x="35.0000" y="199.6572"
textLength="1.4281" font-size="1.7333" lengthAdjust="spacingAndGlyphs"
text-anchor="start" opacity="0" stroke-opacity="0">1</text>
<g class="stroked-text"><desc>1</desc>
<path d="M36.0892 199.6008
L35.3463 199.6008
" />
<path d="M35.7177 199.6008
L35.7177 198.3008
" />
<path d="M35.7177 198.3008
L35.5939 198.4865
" />
<path d="M35.5939 198.4865
L35.4701 198.6103
" />
<path d="M35.4701 198.6103
L35.3463 198.6722
" />
</g></g>
<g style="fill:none; 
stroke:#C872AB; stroke-width:0.1500; stroke-opacity:1; 
stroke-linecap:round; stroke-linejoin:round;">
<text x="85.0000" y="199.6572"
textLength="1.4281" font-size="1.7333" lengthAdjust="spacingAndGlyphs"
text-anchor="start" opacity="0" stroke-opacity="0">2</text>
<g class="stroked-text"><desc>2</desc>
<path d="M85.3463 198.4246
L85.4082 198.3627
" />
<path d="M85.4082 198.3627
L85.5320 198.3008
" />
<path d="M85.5320 198.3008
L85.8415 198.3008
" />
<path d="M85.8415 198.3008
L85.9654 198.3627
" />
<path d="M85.9654 198.3627
L86.0273 198.4246
" />
<path d="M86.0273 198.4246
L86.0892 198.5484
" />
<path d="M86.0892 198.5484
L86.0892 198.6722
" />
<path d="M86.0892 198.6722
L86.0273 198.8579
" />
<path d="M86.0273 198.8579
L85.2844 199.6008
" />
<path d="M85.2844 199.6008
L86.0892 199.6008
" />
</g></g>
<g style="fill:none; 
stroke:#C872AB; stroke-width:0.1500; stroke-opacity:1; 
stroke-linecap:round; stroke-linejoin:round;">
<text x="135.0000" y="199.6572"
textLength="1.4281" font-size="1.7333" lengthAdjust="spacingAndGlyphs"
text-anchor="start" opacity="0" stroke-opacity="0">3</text>
<g class="stroked-text"><desc>3</desc>
<path d="M135.2844 198.3008
L136.0892 198.3008
" />
<path d="M136.0892 198.3008
L135.6558 198.7960
" />
<path d="M135.6558 198.7960
L135.8415 198.7960
" />
<path d="M135.8415 198.7960
L135.9654 198.8579
" />
<path d="M135.9654 198.8579
L136.0273 198.9199
" />
<path d="M136.0273 198.9199
L136.0892 199.0437
" />
<path d="M136.0892 199.0437
L136.0892 199.3532
" />
<path d="M136.0892 199.3532
L136.0273 199.4770
" />
<path d="M136.0273 199.4770
L135.9654 199.5389
" />
<path d="M135.9654 199.5389
L135.8415 199.6008
" />
<path d="M135.8415 199.6008
L135.4701 199.6008
" />
<path d="M135.4701 199.6008
L135.3463 199.5389
" />
<path d="M135.3463 199.5389
L135.2844 199.4770
" />
</g></g>
<g style="fill:none; 
stroke:#C872AB; stroke-width:0.1500; stroke-opacity:1; 
stroke-linecap:round; stroke-linejoin:round;">
<text x="185.0000" y="199.6572"
textLength="1.4281" font-size="1.7333" lengthAdjust="spacingAndGlyphs"
text-anchor="start" opacity="0" stroke-opacity="0">4</text>
<g class="stroked-text"><desc>4</desc>
<path d="M185.9654 198.7341
L185.9654 199.6008
" />
<path d="M185.6558 198.2389
L185.3463 199.1675
" />
<path d="M185.3463 199.1675
L186.1511 199.1675
" />
</g></g>
<g style="fill:none; 
stroke:#C872AB; stroke-width:0.1500; stroke-opacity:1; 
stroke-linecap:round; stroke-linejoin:round;">
<text x="235.0000" y="199.6572"
textLength="1.4281" font-size="1.7333" lengthAdjust="spacingAndGlyphs"
text-anchor="start" opacity="0" stroke-opacity="0">5</text>
<g class="stroked-text"><desc>5</desc>
<path d="M236.0273 198.3008
L235.4082 198.3008
" />
<path d="M235.4082 198.3008
L235.3463 198.9199
" />
<path d="M235.3463 198.9199
L235.4082 198.8579
" />
<path d="M235.4082 198.8579
L235.5320 198.7960
" />
<path d="M235.5320 198.7960
L235.8415 198.7960
" />
<path d="M235.8415 198.7960
L235.9654 198.8579
" />
<path d="M235.9654 198.8579
L236.0273 198.9199
" />
<path d="M236.0273 198.9199
L236.0892 199.0437
" />
<path d="M236.0892 199.0437
L236.0892 199.3532
" />
<path d="M236.0892 199.3532
L236.0273 199.4770
" />
<path d="M236.0273 199.4770
L235.9654 199.5389
" />
<path d="M235.9654 199.5389
L235.8415 199.6008
" />
<path d="M235.8415 199.6008
L235.5320 199.6008
" />
<path d="M235.5320 199.6008
L235.4082 199.5389
" />
<path d="M235.4082 199.5389
L235.3463 199.4770
" />
</g></g>
<g style="fill:none; 
stroke:#C872AB; stroke-width:0.1500; stroke-opacity:1; 
stroke-linecap:round; stroke-linejoin:round;">
<text x="285.0000" y="199.6572"
textLength="1.4281" font-size="1.7333" lengthAdjust="spacingAndGlyphs"
text-anchor="start" opacity="0" stroke-opacity="0">6</text>
<g class="stroked-text"><desc>6</desc>
<path d="M285.9654 198.3008
L285.7177 198.3008
" />
<path d="M285.7177 198.3008
L285.5939 198.3627
" />
<path d="M285.5939 198.3627
L285.5320 198.4246
" />
<path d="M285.5320 198.4246
L285.4082 198.6103
" />
<path d="M285.4082 198.6103
L285.3463 198.8579
" />
<path d="M285.3463 198.8579
L285.3463 199.3532
" />
<path d="M285.3463 199.3532
L285.4082 199.4770
" />
<path d="M285.4082 199.4770
L285.4701 199.5389
" />
<path d="M285.4701 199.5389
L285.5939 199.6008
" />
<path d="M285.5939 199.6008
L285.8415 199.6008
" />
<path d="M285.8415 199.6008
L285.9654 199.5389
" />
<path d="M285.9654 199.5389
L286.0273 199.4770
" />
<path d="M286.0273 199.4770
L286.0892 199.3532
" />
<path d="M286.0892 199.3532
L286.0892 199.0437
" />
<path d="M286.0892 199.0437
L286.0273 198.9199
" />
<path d="M286.0273 198.9199
L285.9654 198.8579
" />
<path d="M285.9654 198.8579
L285.8415 198.7960
" />
<path d="M285.8415 198.7960
L285.5939 198.7960
" />
<path d="M285.5939 198.7960
L285.4701 198.8579
" />
<path d="M285.4701 198.8579
L285.4082 198.9199
" />
<path d="M285.4082 198.9199
L285.3463 199.0437
" />
</g></g>
<g style="fill:none; 
stroke:#C872AB; stroke-width:0.1500; stroke-opacity:1; 
stroke-linecap:round; stroke-linejoin:round;">
<path d="M10.0000 60.0000
L12.0000 60.0000
" />
</g>
<g style="fill:none; 
stroke:#C872AB; stroke-width:0.1500; stroke-opacity:1; 
stroke-linecap:round; stroke-linejoin:round;">
<path d="M10.0000 110.0000
L12.0000 110.0000
" />
</g>
<g style="fill:none; 
stroke:#C872AB; stroke-width:0.1500; stroke-opacity:1; 
stroke-linecap:round; stroke-linejoin:round;">
<path d="M10.0000 160.0000
L12.0000 160.0000
" />
</g>
<g style="fill:none; 
stroke:#C872AB; stroke-width:0.1500; stroke-opacity:1; 
stroke-linecap:round; stroke-linejoin:round;">
<text x="11.0000" y="35.6500"
textLength="1.3043" font-size="1.7333" lengthAdjust="spacingAndGlyphs"
text-anchor="middle" opacity="0" stroke-opacity="0">A</text>
<g class="stroked-text"><desc>A</desc>
<path d="M10.6905 35.2222
L11.3095 35.2222
" />
<path d="M10.5667 35.5936
L11.0000 34.2936
" />
<path d="M11.0000 34.2936
L11.4333 35.5936
" />
</g></g>
<g style="fill:none; 
stroke:#C872AB; stroke-width:0.1500; stroke-opacity:1; 
stroke-linecap:round; stroke-linejoin:round;">
<text x="11.0000" y="85.6500"
textLength="1.4900" font-size="1.7333" lengthAdjust="spacingAndGlyphs"
text-anchor="middle" opacity="0" stroke-opacity="0">B</text>
<g class="stroked-text"><desc>B</desc>
<path d="M11.0929 84.9127
L11.2786 84.9746
" />
<path d="M11.2786 84.9746
L11.3405 85.0365
" />
<path d="M11.3405 85.0365
L11.4024 85.1603
" />
<path d="M11.4024 85.1603
L11.4024 85.3460
" />
<path d="M11.4024 85.3460
L11.3405 85.4698
" />
<path d="M11.3405 85.4698
L11.2786 85.5317
" />
<path d="M11.2786 85.5317
L11.1548 85.5936
" />
<path d="M11.1548 85.5936
L10.6595 85.5936
" />
<path d="M10.6595 85.5936
L10.6595 84.2936
" />
<path d="M10.6595 84.2936
L11.0929 84.2936
" />
<path d="M11.0929 84.2936
L11.2167 84.3555
" />
<path d="M11.2167 84.3555
L11.2786 84.4174
" />
<path d="M11.2786 84.4174
L11.3405 84.5412
" />
<path d="M11.3405 84.5412
L11.3405 84.6650
" />
<path d="M11.3405 84.6650
L11.2786 84.7888
" />
<path d="M11.2786 84.7888
L11.2167 84.8507
" />
<path d="M11.2167 84.8507
L11.0929 84.9127
" />
<path d="M11.0929 84.9127
L10.6595 84.9127
" />
</g></g>
<g style="fill:none; 
stroke:#C872AB; stroke-width:0.1500; stroke-opacity:1; 
stroke-linecap:round; stroke-linejoin:round;">
<text x="11.0000" y="135.6500"
textLength="1.4900" font-size="1.7333" lengthAdjust="spacingAndGlyphs"
text-anchor="middle" opacity="0" stroke-opacity="0">C</text>
<g class="stroked-text"><desc>C</desc>
<path d="M11.4024 135.4698
L11.3405 135.5317
" />
<path d="M11.3405 135.5317
L11.1548 135.5936
" />
<path d="M11.1548 135.5936
L11.0310 135.5936
" />
<path d="M11.0310 135.5936
L10.8452 135.5317
" />
<path d="M10.8452 135.5317
L10.7214 135.4079
" />
<path d="M10.7214 135.4079
L10.6595 135.2841
" />
<path d="M10.6595 135.2841
L10.5976 135.0365
" />
<path d="M10.5976 135.0365
L10.5976 134.8507
" />
<path d="M10.5976 134.8507
L10.6595 134.6031
" />
<path d="M10.6595 134.6031
L10.7214 134.4793
" />
<path d="M10.7214 134.4793
L10.8452 134.3555
" />
<path d="M10.8452 134.3555
L11.0310 134.2936
" />
<path d="M11.0310 134.2936
L11.1548 134.2936
" />
<path d="M11.1548 134.2936
L11.3405 134.3555
" />
<path d="M11.3405 134.3555
L11.4024 134.4174
" />
</g></g>
<g style="fill:none; 
stroke:#C872AB; stroke-width:0.1500; stroke-opacity:1; 
stroke-linecap:round; stroke-linejoin:round;">
<text x="11.0000" y="185.6500"
textLength="1.4900" font-size="1.7333" lengthAdjust="spacingAndGlyphs"
text-anchor="middle" opacity="0" stroke-opacity="0">D</text>
<g class="stroked-text"><desc>D</desc>
<path d="M10.6595 185.5936
L10.6595 184.2936
" />
<path d="M10.6595 184.2936
L10.9690 184.2936
" />
<path d="M10.9690 184.2936
L11.1548 184.3555
" />
<path d="M11.1548 184.3555
L11.2786 184.4793
" />
<path d="M11.2786 184.4793
L11.3405 184.6031
" />
<path d="M11.3405 184.6031
L11.4024 184.8507
" />
<path d="M11.4024 184.8507
L11.4024 185.0365
" />
<path d="M11.4024 185.0365
L11.3405 185.2841
" />
<path d="M11.3405 185.2841
L11.2786 185.4079
" />
<path d="M11.2786 185.4079
L11.1548 185.5317
" />
<path d="M11.1548 185.5317
L10.9690 185.5936
" />
<path d="M10.9690 185.5936
L10.6595 185.5936
" />
</g></g>
<g style="fill:none; 
stroke:#C872AB; stroke-width:0.1500; stroke-opacity:1; 
stroke-linecap:round; stroke-linejoin:round;">
<path d="M287.0022 60.0000
L285.0022 60.0000
" />
</g>
<g style="fill:none; 
stroke:#C872AB; stroke-width:0.1500; stroke-opacity:1; 
stroke-linecap:round; stroke-linejoin:round;">
<path d="M287.0022 110.0000
L285.0022 110.0000
" />
</g>
<g style="fill:none; 
stroke:#C872AB; stroke-width:0.1500; stroke-opacity:1; 
stroke-linecap:round; stroke-linejoin:round;">
<path d="M287.0022 160.0000
L285.0022 160.0000
" />
</g>
<g style="fill:none; 
stroke:#C872AB; stroke-width:0.1500; stroke-opacity:1; 
stroke-linecap:round; stroke-linejoin:round;">
<text x="286.0022" y="35.6500"
textLength="1.3043" font-size="1.7333" lengthAdjust="spacingAndGlyphs"
text-anchor="middle" opacity="0" stroke-opacity="0">A</text>
<g class="stroked-text"><desc>A</desc>
<path d="M285.6927 35.2222
L286.3117 35.2222
" />
<path d="M285.5689 35.5936
L286.0022 34.2936
" />
<path d="M286.0022 34.2936
L286.4355 35.5936
" />
</g></g>
<g style="fill:none; 
stroke:#C872AB; stroke-width:0.1500; stroke-opacity:1; 
stroke-linecap:round; stroke-linejoin:round;">
<text x="286.0022" y="85.6500"
textLength="1.4900" font-size="1.7333" lengthAdjust="spacingAndGlyphs"
text-anchor="middle" opacity="0" stroke-opacity="0">B</text>
<g class="stroked-text"><desc>B</desc>
<path d="M286.0951 84.9127
L286.2808 84.9746
" />
<path d="M286.2808 84.9746
L286.3427 85.0365
" />
<path d="M286.3427 85.0365
L286.4046 85.1603
" />
<path d="M286.4046 85.1603
L286.4046 85.3460
" />
<path d="M286.4046 85.3460
L286.3427 85.4698
" />
<path d="M286.3427 85.4698
L286.2808 85.5317
" />
<path d="M286.2808 85.5317
L286.1570 85.5936
" />
<path d="M286.1570 85.5936
L285.6617 85.5936
" />
<path d="M285.6617 85.5936
L285.6617 84.2936
" />
<path d="M285.6617 84.2936
L286.0951 84.2936
" />
<path d="M286.0951 84.2936
L286.2189 84.3555
" />
<path d="M286.2189 84.3555
L286.2808 84.4174
" />
<path d="M286.2808 84.4174
L286.3427 84.5412
" />
<path d="M286.3427 84.5412
L286.3427 84.6650
" />
<path d="M286.3427 84.6650
L286.2808 84.7888
" />
<path d="M286.2808 84.7888
L286.2189 84.8507
" />
<path d="M286.2189 84.8507
L286.0951 84.9127
" />
<path d="M286.0951 84.9127
L285.6617 84.9127
" />
</g></g>
<g style="fill:none; 
stroke:#C872AB; stroke-width:0.1500; stroke-opacity:1; 
stroke-linecap:round; stroke-linejoin:round;">
<text x="286.0022" y="135.6500"
textLength="1.4900" font-size="1.7333" lengthAdjust="spacingAndGlyphs"
text-anchor="middle" opacity="0" stroke-opacity="0">C</text>
<g class="stroked-text"><desc>C</desc>
<path d="M286.4046 135.4698
L286.3427 135.5317
" />
<path d="M286.3427 135.5317
L286.1570 135.5936
" />
<path d="M286.1570 135.5936
L286.0332 135.5936
" />
<path d="M286.0332 135.5936
L285.8474 135.5317
" />
<path d="M285.8474 135.5317
L285.7236 135.4079
" />
<path d="M285.7236 135.4079
L285.6617 135.2841
" />
<path d="M285.6617 135.2841
L285.5998 135.0365
" />
<path d="M285.5998 135.0365
L285.5998 134.8507
" />
<path d="M285.5998 134.8507
L285.6617 134.6031
" />
<path d="M285.6617 134.6031
L285.7236 134.4793
" />
<path d="M285.7236 134.4793
L285.8474 134.3555
" />
<path d="M285.8474 134.3555
L286.0332 134.2936
" />
<path d="M286.0332 134.2936
L286.1570 134.2936
" />
<path d="M286.1570 134.2936
L286.3427 134.3555
" />
<path d="M286.3427 134.3555
L286.4046 134.4174
" />
</g></g>
<g style="fill:none; 
stroke:#C872AB; stroke-width:0.1500; stroke-opacity:1; 
stroke-linecap:round; stroke-linejoin:round;">
<text x="286.0022" y="185.6500"
textLength="1.4900" font-size="1.7333" lengthAdjust="spacingAndGlyphs"
text-anchor="middle" opacity="0" stroke-opacity="0">D</text>
<g class="stroked-text"><desc>D</desc>
<path d="M285.6617 185.5936
L285.6617 184.2936
" />
<path d="M285.6617 184.2936
L285.9712 184.2936
" />
<path d="M285.9712 184.2936
L286.1570 184.3555
" />
<path d="M286.1570 184.3555
L286.2808 184.4793
" />
<path d="M286.2808 184.4793
L286.3427 184.6031
" />
<path d="M286.3427 184.6031
L286.4046 184.8507
" />
<path d="M286.4046 184.8507
L286.4046 185.0365
" />
<path d="M286.4046 185.0365
L286.3427 185.2841
" />
<path d="M286.3427 185.2841
L286.2808 185.4079
" />
<path d="M286.2808 185.4079
L286.1570 185.5317
" />
<path d="M286.1570 185.5317
L285.9712 185.5936
" />
<path d="M285.9712 185.5936
L285.6617 185.5936
" />
</g></g>
<g style="fill:none; 
stroke:#C872AB; stroke-width:0.1500; stroke-opacity:1; 
stroke-linecap:round; stroke-linejoin:round;">
<text x="200.0022" y="193.8572"
textLength="7.0071" font-size="2.0000" lengthAdjust="spacingAndGlyphs"
text-anchor="start" opacity="0" stroke-opacity="0">Date: </text>
<g class="stroked-text"><desc>Date: </desc>
<path d="M200.4580 193.7933
L200.4580 192.2933
" />
<path d="M200.4580 192.2933
L200.8152 192.2933
" />
<path d="M200.8152 192.2933
L201.0295 192.3648
" />
<path d="M201.0295 192.3648
L201.1723 192.5076
" />
<path d="M201.1723 192.5076
L201.2437 192.6505
" />
<path d="M201.2437 192.6505
L201.3152 192.9362
" />
<path d="M201.3152 192.9362
L201.3152 193.1505
" />
<path d="M201.3152 193.1505
L201.2437 193.4362
" />
<path d="M201.2437 193.4362
L201.1723 193.5790
" />
<path d="M201.1723 193.5790
L201.0295 193.7219
" />
<path d="M201.0295 193.7219
L200.8152 193.7933
" />
<path d="M200.8152 193.7933
L200.4580 193.7933
" />
<path d="M202.6009 193.7933
L202.6009 193.0076
" />
<path d="M202.6009 193.0076
L202.5295 192.8648
" />
<path d="M202.5295 192.8648
L202.3866 192.7933
" />
<path d="M202.3866 192.7933
L202.1009 192.7933
" />
<path d="M202.1009 192.7933
L201.9580 192.8648
" />
<path d="M202.6009 193.7219
L202.4580 193.7933
" />
<path d="M202.4580 193.7933
L202.1009 193.7933
" />
<path d="M202.1009 193.7933
L201.9580 193.7219
" />
<path d="M201.9580 193.7219
L201.8866 193.5790
" />
<path d="M201.8866 193.5790
L201.8866 193.4362
" />
<path d="M201.8866 193.4362
L201.9580 193.2933
" />
<path d="M201.9580 193.2933
L202.1009 193.2219
" />
<path d="M202.1009 193.2219
L202.4580 193.2219
" />
<path d="M202.4580 193.2219
L202.6009 193.1505
" />
<path d="M203.1009 192.7933
L203.6723 192.7933
" />
<path d="M203.3152 192.2933
L203.3152 193.5790
" />
<path d="M203.3152 193.5790
L203.3866 193.7219
" />
<path d="M203.3866 193.7219
L203.5295 193.7933
" />
<path d="M203.5295 193.7933
L203.6723 193.7933
" />
<path d="M204.7437 193.7219
L204.6009 193.7933
" />
<path d="M204.6009 193.7933
L204.3152 193.7933
" />
<path d="M204.3152 193.7933
L204.1723 193.7219
" />
<path d="M204.1723 193.7219
L204.1009 193.5790
" />
<path d="M204.1009 193.5790
L204.1009 193.0076
" />
<path d="M204.1009 193.0076
L204.1723 192.8648
" />
<path d="M204.1723 192.8648
L204.3152 192.7933
" />
<path d="M204.3152 192.7933
L204.6009 192.7933
" />
<path d="M204.6009 192.7933
L204.7437 192.8648
" />
<path d="M204.7437 192.8648
L204.8152 193.0076
" />
<path d="M204.8152 193.0076
L204.8152 193.1505
" />
<path d="M204.8152 193.1505
L204.1009 193.2933
" />
<path d="M205.4580 193.6505
L205.5295 193.7219
" />
<path d="M205.5295 193.7219
L205.4580 193.7933
" />
<path d="M205.4580 193.7933
L205.3866 193.7219
" />
<path d="M205.3866 193.7219
L205.4580 193.6505
" />
<path d="M205.4580 193.6505
L205.4580 193.7933
" />
<path d="M205.4580 192.8648
L205.5295 192.9362
" />
<path d="M205.5295 192.9362
L205.4580 193.0076
" />
<path d="M205.4580 193.0076
L205.3866 192.9362
" />
<path d="M205.3866 192.9362
L205.4580 192.8648
" />
<path d="M205.4580 192.8648
L205.4580 193.0076
" />
</g></g>
<g style="fill:none; 
stroke:#C872AB; stroke-width:0.1500; stroke-opacity:1; 
stroke-linecap:round; stroke-linejoin:round;">
<path d="M177.0022 194.5072
L285.0022 194.5072
" />
</g>
<g style="fill:none; 
stroke:#C872AB; stroke-width:0.1500; stroke-opacity:1; 
stroke-linecap:round; stroke-linejoin:round;">
<text x="178.0022" y="196.6572"
textLength="20.8643" font-size="2.0000" lengthAdjust="spacingAndGlyphs"
text-anchor="start" opacity="0" stroke-opacity="0">KiCad E.D.A. 9.0.6</text>
<g class="stroked-text"><desc>KiCad E.D.A. 9.0.6</desc>
<path d="M178.4580 196.5933
L178.4580 195.0933
" />
<path d="M179.3152 196.5933
L178.6723 195.7362
" />
<path d="M179.3152 195.0933
L178.4580 195.9505
" />
<path d="M179.9580 196.5933
L179.9580 195.5933
" />
<path d="M179.9580 195.0933
L179.8866 195.1648
" />
<path d="M179.8866 195.1648
L179.9580 195.2362
" />
<path d="M179.9580 195.2362
L180.0295 195.1648
" />
<path d="M180.0295 195.1648
L179.9580 195.0933
" />
<path d="M179.9580 195.0933
L179.9580 195.2362
" />
<path d="M181.5295 196.4505
L181.4580 196.5219
" />
<path d="M181.4580 196.5219
L181.2437 196.5933
" />
<path d="M181.2437 196.5933
L181.1009 196.5933
" />
<path d="M181.1009 196.5933
L180.8866 196.5219
" />
<path d="M180.8866 196.5219
L180.7437 196.3790
" />
<path d="M180.7437 196.3790
L180.6723 196.2362
" />
<path d="M180.6723 196.2362
L180.6009 195.9505
" />
<path d="M180.6009 195.9505
L180.6009 195.7362
" />
<path d="M180.6009 195.7362
L180.6723 195.4505
" />
<path d="M180.6723 195.4505
L180.7437 195.3076
" />
<path d="M180.7437 195.3076
L180.8866 195.1648
" />
<path d="M180.8866 195.1648
L181.1009 195.0933
" />
<path d="M181.1009 195.0933
L181.2437 195.0933
" />
<path d="M181.2437 195.0933
L181.4580 195.1648
" />
<path d="M181.4580 195.1648
L181.5295 195.2362
" />
<path d="M182.8152 196.5933
L182.8152 195.8076
" />
<path d="M182.8152 195.8076
L182.7437 195.6648
" />
<path d="M182.7437 195.6648
L182.6009 195.5933
" />
<path d="M182.6009 195.5933
L182.3152 195.5933
" />
<path d="M182.3152 195.5933
L182.1723 195.6648
" />
<path d="M182.8152 196.5219
L182.6723 196.5933
" />
<path d="M182.6723 196.5933
L182.3152 196.5933
" />
<path d="M182.3152 196.5933
L182.1723 196.5219
" />
<path d="M182.1723 196.5219
L182.1009 196.3790
" />
<path d="M182.1009 196.3790
L182.1009 196.2362
" />
<path d="M182.1009 196.2362
L182.1723 196.0933
" />
<path d="M182.1723 196.0933
L182.3152 196.0219
" />
<path d="M182.3152 196.0219
L182.6723 196.0219
" />
<path d="M182.6723 196.0219
L182.8152 195.9505
" />
<path d="M184.1723 196.5933
L184.1723 195.0933
" />
<path d="M184.1723 196.5219
L184.0295 196.5933
" />
<path d="M184.0295 196.5933
L183.7437 196.5933
" />
<path d="M183.7437 196.5933
L183.6009 196.5219
" />
<path d="M183.6009 196.5219
L183.5295 196.4505
" />
<path d="M183.5295 196.4505
L183.4580 196.3076
" />
<path d="M183.4580 196.3076
L183.4580 195.8790
" />
<path d="M183.4580 195.8790
L183.5295 195.7362
" />
<path d="M183.5295 195.7362
L183.6009 195.6648
" />
<path d="M183.6009 195.6648
L183.7437 195.5933
" />
<path d="M183.7437 195.5933
L184.0295 195.5933
" />
<path d="M184.0295 195.5933
L184.1723 195.6648
" />
<path d="M186.0295 195.8076
L186.5295 195.8076
" />
<path d="M186.7437 196.5933
L186.0295 196.5933
" />
<path d="M186.0295 196.5933
L186.0295 195.0933
" />
<path d="M186.0295 195.0933
L186.7437 195.0933
" />
<path d="M187.3866 196.4505
L187.4580 196.5219
" />
<path d="M187.4580 196.5219
L187.3866 196.5933
" />
<path d="M187.3866 196.5933
L187.3152 196.5219
" />
<path d="M187.3152 196.5219
L187.3866 196.4505
" />
<path d="M187.3866 196.4505
L187.3866 196.5933
" />
<path d="M188.1009 196.5933
L188.1009 195.0933
" />
<path d="M188.1009 195.0933
L188.4580 195.0933
" />
<path d="M188.4580 195.0933
L188.6723 195.1648
" />
<path d="M188.6723 195.1648
L188.8152 195.3076
" />
<path d="M188.8152 195.3076
L188.8866 195.4505
" />
<path d="M188.8866 195.4505
L188.9580 195.7362
" />
<path d="M188.9580 195.7362
L188.9580 195.9505
" />
<path d="M188.9580 195.9505
L188.8866 196.2362
" />
<path d="M188.8866 196.2362
L188.8152 196.3790
" />
<path d="M188.8152 196.3790
L188.6723 196.5219
" />
<path d="M188.6723 196.5219
L188.4580 196.5933
" />
<path d="M188.4580 196.5933
L188.1009 196.5933
" />
<path d="M189.6009 196.4505
L189.6723 196.5219
" />
<path d="M189.6723 196.5219
L189.6009 196.5933
" />
<path d="M189.6009 196.5933
L189.5295 196.5219
" />
<path d="M189.5295 196.5219
L189.6009 196.4505
" />
<path d="M189.6009 196.4505
L189.6009 196.5933
" />
<path d="M190.2437 196.1648
L190.9580 196.1648
" />
<path d="M190.1009 196.5933
L190.6009 195.0933
" />
<path d="M190.6009 195.0933
L191.1009 196.5933
" />
<path d="M191.6009 196.4505
L191.6723 196.5219
" />
<path d="M191.6723 196.5219
L191.6009 196.5933
" />
<path d="M191.6009 196.5933
L191.5295 196.5219
" />
<path d="M191.5295 196.5219
L191.6009 196.4505
" />
<path d="M191.6009 196.4505
L191.6009 196.5933
" />
<path d="M193.5295 196.5933
L193.8152 196.5933
" />
<path d="M193.8152 196.5933
L193.9580 196.5219
" />
<path d="M193.9580 196.5219
L194.0295 196.4505
" />
<path d="M194.0295 196.4505
L194.1723 196.2362
" />
<path d="M194.1723 196.2362
L194.2437 195.9505
" />
<path d="M194.2437 195.9505
L194.2437 195.3790
" />
<path d="M194.2437 195.3790
L194.1723 195.2362
" />
<path d="M194.1723 195.2362
L194.1009 195.1648
" />
<path d="M194.1009 195.1648
L193.9580 195.0933
" />
<path d="M193.9580 195.0933
L193.6723 195.0933
" />
<path d="M193.6723 195.0933
L193.5295 195.1648
" />
<path d="M193.5295 195.1648
L193.4580 195.2362
" />
<path d="M193.4580 195.2362
L193.3866 195.3790
" />
<path d="M193.3866 195.3790
L193.3866 195.7362
" />
<path d="M193.3866 195.7362
L193.4580 195.8790
" />
<path d="M193.4580 195.8790
L193.5295 195.9505
" />
<path d="M193.5295 195.9505
L193.6723 196.0219
" />
<path d="M193.6723 196.0219
L193.9580 196.0219
" />
<path d="M193.9580 196.0219
L194.1009 195.9505
" />
<path d="M194.1009 195.9505
L194.1723 195.8790
" />
<path d="M194.1723 195.8790
L194.2437 195.7362
" />
<path d="M194.8866 196.4505
L194.9580 196.5219
" />
<path d="M194.9580 196.5219
L194.8866 196.5933
" />
<path d="M194.8866 196.5933
L194.8152 196.5219
" />
<path d="M194.8152 196.5219
L194.8866 196.4505
" />
<path d="M194.8866 196.4505
L194.8866 196.5933
" />
<path d="M195.8866 195.0933
L196.0295 195.0933
" />
<path d="M196.0295 195.0933
L196.1723 195.1648
" />
<path d="M196.1723 195.1648
L196.2437 195.2362
" />
<path d="M196.2437 195.2362
L196.3152 195.3790
" />
<path d="M196.3152 195.3790
L196.3866 195.6648
" />
<path d="M196.3866 195.6648
L196.3866 196.0219
" />
<path d="M196.3866 196.0219
L196.3152 196.3076
" />
<path d="M196.3152 196.3076
L196.2437 196.4505
" />
<path d="M196.2437 196.4505
L196.1723 196.5219
" />
<path d="M196.1723 196.5219
L196.0295 196.5933
" />
<path d="M196.0295 196.5933
L195.8866 196.5933
" />
<path d="M195.8866 196.5933
L195.7437 196.5219
" />
<path d="M195.7437 196.5219
L195.6723 196.4505
" />
<path d="M195.6723 196.4505
L195.6009 196.3076
" />
<path d="M195.6009 196.3076
L195.5295 196.0219
" />
<path d="M195.5295 196.0219
L195.5295 195.6648
" />
<path d="M195.5295 195.6648
L195.6009 195.3790
" />
<path d="M195.6009 195.3790
L195.6723 195.2362
" />
<path d="M195.6723 195.2362
L195.7437 195.1648
" />
<path d="M195.7437 195.1648
L195.8866 195.0933
" />
<path d="M197.0295 196.4505
L197.1009 196.5219
" />
<path d="M197.1009 196.5219
L197.0295 196.5933
" />
<path d="M197.0295 196.5933
L196.9580 196.5219
" />
<path d="M196.9580 196.5219
L197.0295 196.4505
" />
<path d="M197.0295 196.4505
L197.0295 196.5933
" />
<path d="M198.3866 195.0933
L198.1009 195.0933
" />
<path d="M198.1009 195.0933
L197.9580 195.1648
" />
<path d="M197.9580 195.1648
L197.8866 195.2362
" />
<path d="M197.8866 195.2362
L197.7437 195.4505
" />
<path d="M197.7437 195.4505
L197.6723 195.7362
" />
<path d="M197.6723 195.7362
L197.6723 196.3076
" />
<path d="M197.6723 196.3076
L197.7437 196.4505
" />
<path d="M197.7437 196.4505
L197.8152 196.5219
" />
<path d="M197.8152 196.5219
L197.9580 196.5933
" />
<path d="M197.9580 196.5933
L198.2437 196.5933
" />
<path d="M198.2437 196.5933
L198.3866 196.5219
" />
<path d="M198.3866 196.5219
L198.4580 196.4505
" />
<path d="M198.4580 196.4505
L198.5295 196.3076
" />
<path d="M198.5295 196.3076
L198.5295 195.9505
" />
<path d="M198.5295 195.9505
L198.4580 195.8076
" />
<path d="M198.4580 195.8076
L198.3866 195.7362
" />
<path d="M198.3866 195.7362
L198.2437 195.6648
" />
<path d="M198.2437 195.6648
L197.9580 195.6648
" />
<path d="M197.9580 195.6648
L197.8152 195.7362
" />
<path d="M197.8152 195.7362
L197.7437 195.8076
" />
<path d="M197.7437 195.8076
L197.6723 195.9505
" />
</g></g>
<g style="fill:none; 
stroke:#C872AB; stroke-width:0.1500; stroke-opacity:1; 
stroke-linecap:round; stroke-linejoin:round;">
<path d="M177.0022 191.5072
L285.0022 191.5072
" />
</g>
<g style="fill:none; 
stroke:#C872AB; stroke-width:0.3000; stroke-opacity:1; 
stroke-linecap:round; stroke-linejoin:round;">
<text x="263.0022" y="193.8572"
textLength="6.3857" font-size="2.0000" lengthAdjust="spacingAndGlyphs"
text-anchor="start" opacity="0" stroke-opacity="0">Rev: </text>
<g class="stroked-text"><desc>Rev: </desc>
<path d="M264.4139 193.7855
L263.9139 193.0712
" />
<path d="M263.5567 193.7855
L263.5567 192.2855
" />
<path d="M263.5567 192.2855
L264.1281 192.2855
" />
<path d="M264.1281 192.2855
L264.2710 192.3570
" />
<path d="M264.2710 192.3570
L264.3424 192.4284
" />
<path d="M264.3424 192.4284
L264.4139 192.5712
" />
<path d="M264.4139 192.5712
L264.4139 192.7855
" />
<path d="M264.4139 192.7855
L264.3424 192.9284
" />
<path d="M264.3424 192.9284
L264.2710 192.9998
" />
<path d="M264.2710 192.9998
L264.1281 193.0712
" />
<path d="M264.1281 193.0712
L263.5567 193.0712
" />
<path d="M265.6281 193.7141
L265.4853 193.7855
" />
<path d="M265.4853 193.7855
L265.1996 193.7855
" />
<path d="M265.1996 193.7855
L265.0567 193.7141
" />
<path d="M265.0567 193.7141
L264.9853 193.5712
" />
<path d="M264.9853 193.5712
L264.9853 192.9998
" />
<path d="M264.9853 192.9998
L265.0567 192.8570
" />
<path d="M265.0567 192.8570
L265.1996 192.7855
" />
<path d="M265.1996 192.7855
L265.4853 192.7855
" />
<path d="M265.4853 192.7855
L265.6281 192.8570
" />
<path d="M265.6281 192.8570
L265.6996 192.9998
" />
<path d="M265.6996 192.9998
L265.6996 193.1427
" />
<path d="M265.6996 193.1427
L264.9853 193.2855
" />
<path d="M266.1996 192.7855
L266.5567 193.7855
" />
<path d="M266.5567 193.7855
L266.9139 192.7855
" />
<path d="M267.4853 193.6427
L267.5567 193.7141
" />
<path d="M267.5567 193.7141
L267.4853 193.7855
" />
<path d="M267.4853 193.7855
L267.4139 193.7141
" />
<path d="M267.4139 193.7141
L267.4853 193.6427
" />
<path d="M267.4853 193.6427
L267.4853 193.7855
" />
<path d="M267.4853 192.8570
L267.5567 192.9284
" />
<path d="M267.5567 192.9284
L267.4853 192.9998
" />
<path d="M267.4853 192.9998
L267.4139 192.9284
" />
<path d="M267.4139 192.9284
L267.4853 192.8570
" />
<path d="M267.4853 192.8570
L267.4853 192.9998
" />
</g></g>
<g style="fill:none; 
stroke:#C872AB; stroke-width:0.1500; stroke-opacity:1; 
stroke-linecap:round; stroke-linejoin:round;">
<text x="178.0022" y="193.8572"
textLength="9.3643" font-size="2.0000" lengthAdjust="spacingAndGlyphs"
text-anchor="start" opacity="0" stroke-opacity="0">Size: A4</text>
<g class="stroked-text"><desc>Size: A4</desc>
<path d="M178.3866 193.7219
L178.6009 193.7933
" />
<path d="M178.6009 193.7933
L178.9580 193.7933
" />
<path d="M178.9580 193.7933
L179.1009 193.7219
" />
<path d="M179.1009 193.7219
L179.1723 193.6505
" />
<path d="M179.1723 193.6505
L179.2437 193.5076
" />
<path d="M179.2437 193.5076
L179.2437 193.3648
" />
<path d="M179.2437 193.3648
L179.1723 193.2219
" />
<path d="M179.1723 193.2219
L179.1009 193.1505
" />
<path d="M179.1009 193.1505
L178.9580 193.0790
" />
<path d="M178.9580 193.0790
L178.6723 193.0076
" />
<path d="M178.6723 193.0076
L178.5295 192.9362
" />
<path d="M178.5295 192.9362
L178.4580 192.8648
" />
<path d="M178.4580 192.8648
L178.3866 192.7219
" />
<path d="M178.3866 192.7219
L178.3866 192.5790
" />
<path d="M178.3866 192.5790
L178.4580 192.4362
" />
<path d="M178.4580 192.4362
L178.5295 192.3648
" />
<path d="M178.5295 192.3648
L178.6723 192.2933
" />
<path d="M178.6723 192.2933
L179.0295 192.2933
" />
<path d="M179.0295 192.2933
L179.2437 192.3648
" />
<path d="M179.8866 193.7933
L179.8866 192.7933
" />
<path d="M179.8866 192.2933
L179.8152 192.3648
" />
<path d="M179.8152 192.3648
L179.8866 192.4362
" />
<path d="M179.8866 192.4362
L179.9580 192.3648
" />
<path d="M179.9580 192.3648
L179.8866 192.2933
" />
<path d="M179.8866 192.2933
L179.8866 192.4362
" />
<path d="M180.4580 192.7933
L181.2437 192.7933
" />
<path d="M181.2437 192.7933
L180.4580 193.7933
" />
<path d="M180.4580 193.7933
L181.2437 193.7933
" />
<path d="M182.3866 193.7219
L182.2437 193.7933
" />
<path d="M182.2437 193.7933
L181.9580 193.7933
" />
<path d="M181.9580 193.7933
L181.8152 193.7219
" />
<path d="M181.8152 193.7219
L181.7437 193.5790
" />
<path d="M181.7437 193.5790
L181.7437 193.0076
" />
<path d="M181.7437 193.0076
L181.8152 192.8648
" />
<path d="M181.8152 192.8648
L181.9580 192.7933
" />
<path d="M181.9580 192.7933
L182.2437 192.7933
" />
<path d="M182.2437 192.7933
L182.3866 192.8648
" />
<path d="M182.3866 192.8648
L182.4580 193.0076
" />
<path d="M182.4580 193.0076
L182.4580 193.1505
" />
<path d="M182.4580 193.1505
L181.7437 193.2933
" />
<path d="M183.1009 193.6505
L183.1723 193.7219
" />
<path d="M183.1723 193.7219
L183.1009 193.7933
" />
<path d="M183.1009 193.7933
L183.0295 193.7219
" />
<path d="M183.0295 193.7219
L183.1009 193.6505
" />
<path d="M183.1009 193.6505
L183.1009 193.7933
" />
<path d="M183.1009 192.8648
L183.1723 192.9362
" />
<path d="M183.1723 192.9362
L183.1009 193.0076
" />
<path d="M183.1009 193.0076
L183.0295 192.9362
" />
<path d="M183.0295 192.9362
L183.1009 192.8648
" />
<path d="M183.1009 192.8648
L183.1009 193.0076
" />
<path d="M184.8866 193.3648
L185.6009 193.3648
" />
<path d="M184.7437 193.7933
L185.2437 192.2933
" />
<path d="M185.2437 192.2933
L185.7437 193.7933
" />
<path d="M186.8866 192.7933
L186.8866 193.7933
" />
<path d="M186.5295 192.2219
L186.1723 193.2933
" />
<path d="M186.1723 193.2933
L187.1009 193.2933
" />
</g></g>
<g style="fill:none; 
stroke:#C872AB; stroke-width:0.1500; stroke-opacity:1; 
stroke-linecap:round; stroke-linejoin:round;">
<text x="263.0022" y="196.6572"
textLength="8.5071" font-size="2.0000" lengthAdjust="spacingAndGlyphs"
text-anchor="start" opacity="0" stroke-opacity="0">Id: 1/1</text>
<g class="stroked-text"><desc>Id: 1/1</desc>
<path d="M263.4580 196.5933
L263.4580 195.0933
" />
<path d="M264.8152 196.5933
L264.8152 195.0933
" />
<path d="M264.8152 196.5219
L264.6723 196.5933
" />
<path d="M264.6723 196.5933
L264.3866 196.5933
" />
<path d="M264.3866 196.5933
L264.2437 196.5219
" />
<path d="M264.2437 196.5219
L264.1723 196.4505
" />
<path d="M264.1723 196.4505
L264.1009 196.3076
" />
<path d="M264.1009 196.3076
L264.1009 195.8790
" />
<path d="M264.1009 195.8790
L264.1723 195.7362
" />
<path d="M264.1723 195.7362
L264.2437 195.6648
" />
<path d="M264.2437 195.6648
L264.3866 195.5933
" />
<path d="M264.3866 195.5933
L264.6723 195.5933
" />
<path d="M264.6723 195.5933
L264.8152 195.6648
" />
<path d="M265.5295 196.4505
L265.6009 196.5219
" />
<path d="M265.6009 196.5219
L265.5295 196.5933
" />
<path d="M265.5295 196.5933
L265.4580 196.5219
" />
<path d="M265.4580 196.5219
L265.5295 196.4505
" />
<path d="M265.5295 196.4505
L265.5295 196.5933
" />
<path d="M265.5295 195.6648
L265.6009 195.7362
" />
<path d="M265.6009 195.7362
L265.5295 195.8076
" />
<path d="M265.5295 195.8076
L265.4580 195.7362
" />
<path d="M265.4580 195.7362
L265.5295 195.6648
" />
<path d="M265.5295 195.6648
L265.5295 195.8076
" />
<path d="M268.1723 196.5933
L267.3152 196.5933
" />
<path d="M267.7437 196.5933
L267.7437 195.0933
" />
<path d="M267.7437 195.0933
L267.6009 195.3076
" />
<path d="M267.6009 195.3076
L267.4580 195.4505
" />
<path d="M267.4580 195.4505
L267.3152 195.5219
" />
<path d="M269.8866 195.0219
L268.6009 196.9505
" />
<path d="M271.1723 196.5933
L270.3152 196.5933
" />
<path d="M270.7437 196.5933
L270.7437 195.0933
" />
<path d="M270.7437 195.0933
L270.6009 195.3076
" />
<path d="M270.6009 195.3076
L270.4580 195.4505
" />
<path d="M270.4580 195.4505
L270.3152 195.5219
" />
</g></g>
<g style="fill:none; 
stroke:#C872AB; stroke-width:0.1500; stroke-opacity:1; 
stroke-linecap:round; stroke-linejoin:round;">
<path d="M177.0022 187.5072
L285.0022 187.5072
" />
</g>
<g style="fill:none; 
stroke:#C872AB; stroke-width:0.4000; stroke-opacity:1; 
stroke-linecap:round; stroke-linejoin:round;">
<text x="178.0022" y="190.3072"
textLength="9.6571" font-size="2.6667" lengthAdjust="spacingAndGlyphs"
text-anchor="start" opacity="0" stroke-opacity="0">Title: </text>
<g class="stroked-text"><desc>Title: </desc>
<path d="M178.6939 188.2116
L179.8368 188.2116
" />
<path d="M179.0154 190.2116
L179.2654 188.2116
" />
<path d="M180.2535 190.2116
L180.4201 188.8783
" />
<path d="M180.5035 188.2116
L180.3963 188.3069
" />
<path d="M180.3963 188.3069
L180.4796 188.4021
" />
<path d="M180.4796 188.4021
L180.5868 188.3069
" />
<path d="M180.5868 188.3069
L180.5035 188.2116
" />
<path d="M180.5035 188.2116
L180.4796 188.4021
" />
<path d="M181.0868 188.8783
L181.8487 188.8783
" />
<path d="M181.4558 188.2116
L181.2415 189.9259
" />
<path d="M181.2415 189.9259
L181.3130 190.1164
" />
<path d="M181.3130 190.1164
L181.4915 190.2116
" />
<path d="M181.4915 190.2116
L181.6820 190.2116
" />
<path d="M182.6344 190.2116
L182.4558 190.1164
" />
<path d="M182.4558 190.1164
L182.3844 189.9259
" />
<path d="M182.3844 189.9259
L182.5987 188.2116
" />
<path d="M184.1701 190.1164
L183.9677 190.2116
" />
<path d="M183.9677 190.2116
L183.5868 190.2116
" />
<path d="M183.5868 190.2116
L183.4082 190.1164
" />
<path d="M183.4082 190.1164
L183.3368 189.9259
" />
<path d="M183.3368 189.9259
L183.4320 189.1640
" />
<path d="M183.4320 189.1640
L183.5511 188.9735
" />
<path d="M183.5511 188.9735
L183.7535 188.8783
" />
<path d="M183.7535 188.8783
L184.1344 188.8783
" />
<path d="M184.1344 188.8783
L184.3130 188.9735
" />
<path d="M184.3130 188.9735
L184.3844 189.1640
" />
<path d="M184.3844 189.1640
L184.3606 189.3545
" />
<path d="M184.3606 189.3545
L183.3844 189.5450
" />
<path d="M185.1344 190.0212
L185.2177 190.1164
" />
<path d="M185.2177 190.1164
L185.1106 190.2116
" />
<path d="M185.1106 190.2116
L185.0273 190.1164
" />
<path d="M185.0273 190.1164
L185.1344 190.0212
" />
<path d="M185.1344 190.0212
L185.1106 190.2116
" />
<path d="M185.2654 188.9735
L185.3487 189.0688
" />
<path d="M185.3487 189.0688
L185.2415 189.1640
" />
<path d="M185.2415 189.1640
L185.1582 189.0688
" />
<path d="M185.1582 189.0688
L185.2654 188.9735
" />
<path d="M185.2654 188.9735
L185.2415 189.1640
" />
</g></g>
<g style="fill:none; 
stroke:#C872AB; stroke-width:0.1500; stroke-opacity:1; 
stroke-linecap:round; stroke-linejoin:round;">
<text x="178.0022" y="186.4572"
textLength="21.3643" font-size="2.0000" lengthAdjust="spacingAndGlyphs"
text-anchor="start" opacity="0" stroke-opacity="0">File: old.kicad_pcb</text>
<g class="stroked-text"><desc>File: old.kicad_pcb</desc>
<path d="M178.9580 185.6076
L178.4580 185.6076
" />
<path d="M178.4580 186.3933
L178.4580 184.8933
" />
<path d="M178.4580 184.8933
L179.1723 184.8933
" />
<path d="M179.7437 186.3933
L179.7437 185.3933
" />
<path d="M179.7437 184.8933
L179.6723 184.9648
" />
<path d="M179.6723 184.9648
L179.7437 185.0362
" />
<path d="M179.7437 185.0362
L179.8152 184.9648
" />
<path d="M179.8152 184.9648
L179.7437 184.8933
" />
<path d="M179.7437 184.8933
L179.7437 185.0362
" />
<path d="M180.6723 186.3933
L180.5295 186.3219
" />
<path d="M180.5295 186.3219
L180.4580 186.1790
" />
<path d="M180.4580 186.1790
L180.4580 184.8933
" />
<path d="M181.8152 186.3219
L181.6723 186.3933
" />
<path d="M181.6723 186.3933
L181.3866 186.3933
" />
<path d="M181.3866 186.3933
L181.2437 186.3219
" />
<path d="M181.2437 186.3219
L181.1723 186.1790
" />
<path d="M181.1723 186.1790
L181.1723 185.6076
" />
<path d="M181.1723 185.6076
L181.2437 185.4648
" />
<path d="M181.2437 185.4648
L181.3866 185.3933
" />
<path d="M181.3866 185.3933
L181.6723 185.3933
" />
<path d="M181.6723 185.3933
L181.8152 185.4648
" />
<path d="M181.8152 185.4648
L181.8866 185.6076
" />
<path d="M181.8866 185.6076
L181.8866 185.7505
" />
<path d="M181.8866 185.7505
L181.1723 185.8933
" />
<path d="M182.5295 186.2505
L182.6009 186.3219
" />
<path d="M182.6009 186.3219
L182.5295 186.3933
" />
<path d="M182.5295 186.3933
L182.4580 186.3219
" />
<path d="M182.4580 186.3219
L182.5295 186.2505
" />
<path d="M182.5295 186.2505
L182.5295 186.3933
" />
<path d="M182.5295 185.4648
L182.6009 185.5362
" />
<path d="M182.6009 185.5362
L182.5295 185.6076
" />
<path d="M182.5295 185.6076
L182.4580 185.5362
" />
<path d="M182.4580 185.5362
L182.5295 185.4648
" />
<path d="M182.5295 185.4648
L182.5295 185.6076
" />
<path d="M184.6009 186.3933
L184.4580 186.3219
" />
<path d="M184.4580 186.3219
L184.3866 186.2505
" />
<path d="M184.3866 186.2505
L184.3152 186.1076
" />
<path d="M184.3152 186.1076
L184.3152 185.6790
" />
<path d="M184.3152 185.6790
L184.3866 185.5362
" />
<path d="M184.3866 185.5362
L184.4580 185.4648
" />
<path d="M184.4580 185.4648
L184.6009 185.3933
" />
<path d="M184.6009 185.3933
L184.8152 185.3933
" />
<path d="M184.8152 185.3933
L184.9580 185.4648
" />
<path d="M184.9580 185.4648
L185.0295 185.5362
" />
<path d="M185.0295 185.5362
L185.1009 185.6790
" />
<path d="M185.1009 185.6790
L185.1009 186.1076
" />
<path d="M185.1009 186.1076
L185.0295 186.2505
" />
<path d="M185.0295 186.2505
L184.9580 186.3219
" />
<path d="M184.9580 186.3219
L184.8152 186.3933
" />
<path d="M184.8152 186.3933
L184.6009 186.3933
" />
<path d="M185.9580 186.3933
L185.8152 186.3219
" />
<path d="M185.8152 186.3219
L185.7437 186.1790
" />
<path d="M185.7437 186.1790
L185.7437 184.8933
" />
<path d="M187.1723 186.3933
L187.1723 184.8933
" />
<path d="M187.1723 186.3219
L187.0295 186.3933
" />
<path d="M187.0295 186.3933
L186.7437 186.3933
" />
<path d="M186.7437 186.3933
L186.6009 186.3219
" />
<path d="M186.6009 186.3219
L186.5295 186.2505
" />
<path d="M186.5295 186.2505
L186.4580 186.1076
" />
<path d="M186.4580 186.1076
L186.4580 185.6790
" />
<path d="M186.4580 185.6790
L186.5295 185.5362
" />
<path d="M186.5295 185.5362
L186.6009 185.4648
" />
<path d="M186.6009 185.4648
L186.7437 185.3933
" />
<path d="M186.7437 185.3933
L187.0295 185.3933
" />
<path d="M187.0295 185.3933
L187.1723 185.4648
" />
<path d="M187.8866 186.2505
L187.9580 186.3219
" />
<path d="M187.9580 186.3219
L187.8866 186.3933
" />
<path d="M187.8866 186.3933
L187.8152 186.3219
" />
<path d="M187.8152 186.3219
L187.8866 186.2505
" />
<path d="M187.8866 186.2505
L187.8866 186.3933
" />
<path d="M188.6009 186.3933
L188.6009 184.8933
" />
<path d="M188.7437 185.8219
L189.1723 186.3933
" />
<path d="M189.1723 185.3933
L188.6009 185.9648
" />
<path d="M189.8152 186.3933
L189.8152 185.3933
" />
<path d="M189.8152 184.8933
L189.7437 184.9648
" />
<path d="M189.7437 184.9648
L189.8152 185.0362
" />
<path d="M189.8152 185.0362
L189.8866 184.9648
" />
<path d="M189.8866 184.9648
L189.8152 184.8933
" />
<path d="M189.8152 184.8933
L189.8152 185.0362
" />
<path d="M191.1723 186.3219
L191.0295 186.3933
" />
<path d="M191.0295 186.3933
L190.7437 186.3933
" />
<path d="M190.7437 186.3933
L190.6009 186.3219
" />
<path d="M190.6009 186.3219
L190.5295 186.2505
" />
<path d="M190.5295 186.2505
L190.4580 186.1076
" />
<path d="M190.4580 186.1076
L190.4580 185.6790
" />
<path d="M190.4580 185.6790
L190.5295 185.5362
" />
<path d="M190.5295 185.5362
L190.6009 185.4648
" />
<path d="M190.6009 185.4648
L190.7437 185.3933
" />
<path d="M190.7437 185.3933
L191.0295 185.3933
" />
<path d="M191.0295 185.3933
L191.1723 185.4648
" />
<path d="M192.4580 186.3933
L192.4580 185.6076
" />
<path d="M192.4580 185.6076
L192.3866 185.4648
" />
<path d="M192.3866 185.4648
L192.2437 185.3933
" />
<path d="M192.2437 185.3933
L191.9580 185.3933
" />
<path d="M191.9580 185.3933
L191.8152 185.4648
" />
<path d="M192.4580 186.3219
L192.3152 186.3933
" />
<path d="M192.3152 186.3933
L191.9580 186.3933
" />
<path d="M191.9580 186.3933
L191.8152 186.3219
" />
<path d="M191.8152 186.3219
L191.7437 186.1790
" />
<path d="M191.7437 186.1790
L191.7437 186.0362
" />
<path d="M191.7437 186.0362
L191.8152 185.8933
" />
<path d="M191.8152 185.8933
L191.9580 185.8219
" />
<path d="M191.9580 185.8219
L192.3152 185.8219
" />
<path d="M192.3152 185.8219
L192.4580 185.7505
" />
<path d="M193.8152 186.3933
L193.8152 184.8933
" />
<path d="M193.8152 186.3219
L193.6723 186.3933
" />
<path d="M193.6723 186.3933
L193.3866 186.3933
" />
<path d="M193.3866 186.3933
L193.2437 186.3219
" />
<path d="M193.2437 186.3219
L193.1723 186.2505
" />
<path d="M193.1723 186.2505
L193.1009 186.1076
" />
<path d="M193.1009 186.1076
L193.1009 185.6790
" />
<path d="M193.1009 185.6790
L193.1723 185.5362
" />
<path d="M193.1723 185.5362
L193.2437 185.4648
" />
<path d="M193.2437 185.4648
L193.3866 185.3933
" />
<path d="M193.3866 185.3933
L193.6723 185.3933
" />
<path d="M193.6723 185.3933
L193.8152 185.4648
" />
<path d="M194.1723 186.5362
L195.3152 186.5362
" />
<path d="M195.6723 185.3933
L195.6723 186.8933
" />
<path d="M195.6723 185.4648
L195.8152 185.3933
" />
<path d="M195.8152 185.3933
L196.1009 185.3933
" />
<path d="M196.1009 185.3933
L196.2437 185.4648
" />
<path d="M196.2437 185.4648
L196.3152 185.5362
" />
<path d="M196.3152 185.5362
L196.3866 185.6790
" />
<path d="M196.3866 185.6790
L196.3866 186.1076
" />
<path d="M196.3866 186.1076
L196.3152 186.2505
" />
<path d="M196.3152 186.2505
L196.2437 186.3219
" />
<path d="M196.2437 186.3219
L196.1009 186.3933
" />
<path d="M196.1009 186.3933
L195.8152 186.3933
" />
<path d="M195.8152 186.3933
L195.6723 186.3219
" />
<path d="M197.6723 186.3219
L197.5295 186.3933
" />
<path d="M197.5295 186.3933
L197.2437 186.3933
" />
<path d="M197.2437 186.3933
L197.1009 186.3219
" />
<path d="M197.1009 186.3219
L197.0295 186.2505
" />
<path d="M197.0295 186.2505
L196.9580 186.1076
" />
<path d="M196.9580 186.1076
L196.9580 185.6790
" />
<path d="M196.9580 185.6790
L197.0295 185.5362
" />
<path d="M197.0295 185.5362
L197.1009 185.4648
" />
<path d="M197.1009 185.4648
L197.2437 185.3933
" />
<path d="M197.2437 185.3933
L197.5295 185.3933
" />
<path d="M197.5295 185.3933
L197.6723 185.4648
" />
<path d="M198.3152 186.3933
L198.3152 184.8933
" />
<path d="M198.3152 185.4648
L198.4580 185.3933
" />
<path d="M198.4580 185.3933
L198.7437 185.3933
" />
<path d="M198.7437 185.3933
L198.8866 185.4648
" />
<path d="M198.8866 185.4648
L198.9580 185.5362
" />
<path d="M198.9580 185.5362
L199.0295 185.6790
" />
<path d="M199.0295 185.6790
L199.0295 186.1076
" />
<path d="M199.0295 186.1076
L198.9580 186.2505
" />
<path d="M198.9580 186.2505
L198.8866 186.3219
" />
<path d="M198.8866 186.3219
L198.7437 186.3933
" />
<path d="M198.7437 186.3933
L198.4580 186.3933
" />
<path d="M198.4580 186.3933
L198.3152 186.3219
" />
</g></g>
<g style="fill:none; 
stroke:#C872AB; stroke-width:0.1500; stroke-opacity:1; 
stroke-linecap:round; stroke-linejoin:round;">
<path d="M177.0022 181.5072
L285.0022 181.5072
" />
</g>
<g style="fill:none; 
stroke:#C872AB; stroke-width:0.1500; stroke-opacity:1; 
stroke-linecap:round; stroke-linejoin:round;">
<text x="178.0022" y="183.7572"
textLength="8.2214" font-size="2.0000" lengthAdjust="spacingAndGlyphs"
text-anchor="start" opacity="0" stroke-opacity="0">Sheet: </text>
<g class="stroked-text"><desc>Sheet: </desc>
<path d="M178.3866 183.6219
L178.6009 183.6933
" />
<path d="M178.6009 183.6933
L178.9580 183.6933
" />
<path d="M178.9580 183.6933
L179.1009 183.6219
" />
<path d="M179.1009 183.6219
L179.1723 183.5505
" />
<path d="M179.1723 183.5505
L179.2437 183.4076
" />
<path d="M179.2437 183.4076
L179.2437 183.2648
" />
<path d="M179.2437 183.2648
L179.1723 183.1219
" />
<path d="M179.1723 183.1219
L179.1009 183.0505
" />
<path d="M179.1009 183.0505
L178.9580 182.9790
" />
<path d="M178.9580 182.9790
L178.6723 182.9076
" />
<path d="M178.6723 182.9076
L178.5295 182.8362
" />
<path d="M178.5295 182.8362
L178.4580 182.7648
" />
<path d="M178.4580 182.7648
L178.3866 182.6219
" />
<path d="M178.3866 182.6219
L178.3866 182.4790
" />
<path d="M178.3866 182.4790
L178.4580 182.3362
" />
<path d="M178.4580 182.3362
L178.5295 182.2648
" />
<path d="M178.5295 182.2648
L178.6723 182.1933
" />
<path d="M178.6723 182.1933
L179.0295 182.1933
" />
<path d="M179.0295 182.1933
L179.2437 182.2648
" />
<path d="M179.8866 183.6933
L179.8866 182.1933
" />
<path d="M180.5295 183.6933
L180.5295 182.9076
" />
<path d="M180.5295 182.9076
L180.4580 182.7648
" />
<path d="M180.4580 182.7648
L180.3152 182.6933
" />
<path d="M180.3152 182.6933
L180.1009 182.6933
" />
<path d="M180.1009 182.6933
L179.9580 182.7648
" />
<path d="M179.9580 182.7648
L179.8866 182.8362
" />
<path d="M181.8152 183.6219
L181.6723 183.6933
" />
<path d="M181.6723 183.6933
L181.3866 183.6933
" />
<path d="M181.3866 183.6933
L181.2437 183.6219
" />
<path d="M181.2437 183.6219
L181.1723 183.4790
" />
<path d="M181.1723 183.4790
L181.1723 182.9076
" />
<path d="M181.1723 182.9076
L181.2437 182.7648
" />
<path d="M181.2437 182.7648
L181.3866 182.6933
" />
<path d="M181.3866 182.6933
L181.6723 182.6933
" />
<path d="M181.6723 182.6933
L181.8152 182.7648
" />
<path d="M181.8152 182.7648
L181.8866 182.9076
" />
<path d="M181.8866 182.9076
L181.8866 183.0505
" />
<path d="M181.8866 183.0505
L181.1723 183.1933
" />
<path d="M183.1009 183.6219
L182.9580 183.6933
" />
<path d="M182.9580 183.6933
L182.6723 183.6933
" />
<path d="M182.6723 183.6933
L182.5295 183.6219
" />
<path d="M182.5295 183.6219
L182.4580 183.4790
" />
<path d="M182.4580 183.4790
L182.4580 182.9076
" />
<path d="M182.4580 182.9076
L182.5295 182.7648
" />
<path d="M182.5295 182.7648
L182.6723 182.6933
" />
<path d="M182.6723 182.6933
L182.9580 182.6933
" />
<path d="M182.9580 182.6933
L183.1009 182.7648
" />
<path d="M183.1009 182.7648
L183.1723 182.9076
" />
<path d="M183.1723 182.9076
L183.1723 183.0505
" />
<path d="M183.1723 183.0505
L182.4580 183.1933
" />
<path d="M183.6009 182.6933
L184.1723 182.6933
" />
<path d="M183.8152 182.1933
L183.8152 183.4790
" />
<path d="M183.8152 183.4790
L183.8866 183.6219
" />
<path d="M183.8866 183.6219
L184.0295 183.6933
" />
<path d="M184.0295 183.6933
L184.1723 183.6933
" />
<path d="M184.6723 183.5505
L184.7437 183.6219
" />
<path d="M184.7437 183.6219
L184.6723 183.6933
" />
<path d="M184.6723 183.6933
L184.6009 183.6219
" />
<path d="M184.6009 183.6219
L184.6723 183.5505
" />
<path d="M184.6723 183.5505
L184.6723 183.6933
" />
<path d="M184.6723 182.7648
L184.7437 182.8362
" />
<path d="M184.7437 182.8362
L184.6723 182.9076
" />
<path d="M184.6723 182.9076
L184.6009 182.8362
" />
<path d="M184.6009 182.8362
L184.6723 182.7648
" />
<path d="M184.6723 182.7648
L184.6723 182.9076
" />
</g></g>
<g style="fill:none; 
stroke:#C872AB; stroke-width:0.3000; stroke-opacity:1; 
stroke-linecap:round; stroke-linejoin:round;">
<text x="178.0022" y="180.7572"
textLength="0.9000" font-size="2.0000" lengthAdjust="spacingAndGlyphs"
text-anchor="start" opacity="0" stroke-opacity="0"></text>
<g class="stroked-text"><desc></desc>
</g></g>
<g style="fill:none; 
stroke:#C872AB; stroke-width:0.1500; stroke-opacity:1; 
stroke-linecap:round; stroke-linejoin:round;">
<text x="178.0022" y="177.7572"
textLength="0.4500" font-size="2.0000" lengthAdjust="spacingAndGlyphs"
text-anchor="start" opacity="0" stroke-opacity="0"></text>
<g class="stroked-text"><desc></desc>
</g></g>
<g style="fill:none; 
stroke:#C872AB; stroke-width:0.1500; stroke-opacity:1; 
stroke-linecap:round; stroke-linejoin:round;">
<text x="178.0022" y="174.7572"
textLength="0.4500" font-size="2.0000" lengthAdjust="spacingAndGlyphs"
text-anchor="start" opacity="0" stroke-opacity="0"></text>
<g class="stroked-text"><desc></desc>
</g></g>
<g style="fill:none; 
stroke:#C872AB; stroke-width:0.1500; stroke-opacity:1; 
stroke-linecap:round; stroke-linejoin:round;">
<text x="178.0022" y="171.7572"
textLength="0.4500" font-size="2.0000" lengthAdjust="spacingAndGlyphs"
text-anchor="start" opacity="0" stroke-opacity="0"></text>
<g class="stroked-text"><desc></desc>
</g></g>
<g style="fill:none; 
stroke:#C872AB; stroke-width:0.1500; stroke-opacity:1; 
stroke-linecap:round; stroke-linejoin:round;">
<text x="178.0022" y="168.7572"
textLength="0.4500" font-size="2.0000" lengthAdjust="spacingAndGlyphs"
text-anchor="start" opacity="0" stroke-opacity="0"></text>
<g class="stroked-text"><desc></desc>
</g></g>
<g style="fill:none; 
stroke:#C872AB; stroke-width:0.1500; stroke-opacity:1; 
stroke-linecap:round; stroke-linejoin:round;">
<path d="M197.0022 191.5072
L197.0022 194.5072
" />
</g>
<g style="fill:none; 
stroke:#C872AB; stroke-width:0.1500; stroke-opacity:1; 
stroke-linecap:round; stroke-linejoin:round;">
<path d="M261.0022 191.5072
L261.0022 198.0072
" />
<path style="fill:#C83434; fill-opacity:1.0000; stroke:none;fill-rule:evenodd;"
d="M 82.9200,63.9050
82.9311,63.7833
82.9795,63.6280
83.0637,63.4887
83.1787,63.3737
83.3180,63.2895
83.4733,63.2411
83.5950,63.2300
84.9450,63.2300
85.0667,63.2411
85.2220,63.2895
85.3613,63.3737
85.4763,63.4887
85.5605,63.6280
85.6089,63.7833
85.6200,63.9050
85.6200,65.2550
85.6089,65.3767
85.5605,65.5320
85.4763,65.6713
85.3613,65.7863
85.2220,65.8705
85.0667,65.9189
84.9450,65.9300
83.5950,65.9300
83.4733,65.9189
83.3180,65.8705
83.1787,65.7863
83.0637,65.6713
82.9795,65.5320
82.9311,65.3767
82.9200,65.2550
Z" /> 
<path style="fill:#C83434; fill-opacity:1.0000; stroke:none;fill-rule:evenodd;"
d="M 89.6800,63.9050
89.6911,63.7833
89.7395,63.6280
89.8237,63.4887
89.9387,63.3737
90.0780,63.2895
90.2333,63.2411
90.3550,63.2300
91.7050,63.2300
91.8267,63.2411
91.9820,63.2895
92.1213,63.3737
92.2363,63.4887
92.3205,63.6280
92.3689,63.7833
92.3800,63.9050
92.3800,65.2550
92.3689,65.3767
92.3205,65.5320
92.2363,65.6713
92.1213,65.7863
91.9820,65.8705
91.8267,65.9189
91.7050,65.9300
90.3550,65.9300
90.2333,65.9189
90.0780,65.8705
89.9387,65.7863
89.8237,65.6713
89.7395,65.5320
89.6911,65.3767
89.6800,65.2550
Z" /> 
</g>
<g style="fill:#C83434; fill-opacity:1.0000; stroke:none;">
<circle cx="98.3100" cy="64.5800" r="1.3500" /> 
</g>
<g style="fill:#C83434; fill-opacity:1.0000; stroke:none;">
<circle cx="105.0700" cy="64.5800" r="1.3500" /> 
<path style="fill:#C83434; fill-opacity:1.0000; stroke:none;fill-rule:evenodd;"
d="M 62.5000,62.2400
62.5190,62.1443
62.5732,62.0632
62.6543,62.0090
62.7500,61.9900
63.7500,61.9900
63.8457,62.0090
63.9268,62.0632
63.9810,62.1443
64.0000,62.2400
64.0000,63.7600
63.9810,63.8557
63.9268,63.9368
63.8457,63.9910
63.7500,64.0100
62.7500,64.0100
62.6543,63.9910
62.5732,63.9368
62.5190,63.8557
62.5000,63.7600
Z" /> 
</g>
<g style="fill:none; 
stroke:#C83434; stroke-width:1.5000; stroke-opacity:1; 
stroke-linecap:round; stroke-linejoin:round;">
<path d="M66.2500 62.7400
L66.2500 63.2600
" />
<path style="fill:#C83434; fill-opacity:1.0000; stroke:none;fill-rule:evenodd;"
d="M 58.7500,80.9900
58.7690,80.8943
58.8232,80.8132
58.9043,80.7590
59.0000,80.7400
60.0000,80.7400
60.0957,80.7590
60.1768,80.8132
60.2310,80.8943
60.2500,80.9900
60.2500,82.5100
60.2310,82.6057
60.1768,82.6868
60.0957,82.7410
60.0000,82.7600
59.0000,82.7600
58.9043,82.7410
58.8232,82.6868
58.7690,82.6057
58.7500,82.5100
Z" /> 
</g>
<g style="fill:none; 
stroke:#C83434; stroke-width:1.5000; stroke-opacity:1; 
stroke-linecap:round; stroke-linejoin:round;">
<path d="M62.5000 81.4900
L62.5000 82.0100
" />
<path style="fill:#C83434; fill-opacity:1.0000; stroke:none;fill-rule:evenodd;"
d="M 56.0000,96.9900
56.0190,96.8943
56.0732,96.8132
56.1543,96.7590
56.2500,96.7400
57.2500,96.7400
57.3457,96.7590
57.4268,96.8132
57.4810,96.8943
57.5000,96.9900
57.5000,98.5100
57.4810,98.6057
57.4268,98.6868
57.3457,98.7410
57.2500,98.7600
56.2500,98.7600
56.1543,98.7410
56.0732,98.6868
56.0190,98.6057
56.0000,98.5100
Z" /> 
</g>
<g style="fill:none; 
stroke:#C83434; stroke-width:1.5000; stroke-opacity:1; 
stroke-linecap:round; stroke-linejoin:round;">
<path d="M59.7500 97.4900
L59.7500 98.0100
" />
<path style="fill:#C83434; fill-opacity:1.0000; stroke:none;fill-rule:evenodd;"
d="M 119.1930,51.7697
119.2388,51.8225
119.2500,51.8740
119.2500,107.3760
119.2303,107.4430
119.1775,107.4888
119.1260,107.5000
47.3740,107.5000
47.3070,107.4803
47.2612,107.4275
47.2500,107.3760
47.2500,96.9400
55.4995,96.9400
55.4995,98.5600
55.5100,98.6628
55.5100,98.6628
55.5376,98.7461
55.5652,98.8293
55.5652,98.8293
55.6573,98.9787
55.6573,98.9787
55.7813,99.1027
55.7813,99.1027
55.9307,99.1948
55.9307,99.1948
55.9307,99.1948
56.0972,99.2500
56.2000,99.2605
56.2000,99.2605
57.3000,99.2605
57.3000,99.2605
57.4028,99.2500
57.5693,99.1948
57.7187,99.1027
57.8427,98.9787
57.9348,98.8293
57.9900,98.6628
58.0005,98.5600
58.0005,97.3916
58.4995,97.3916
58.4995,98.1084
58.5303,98.3028
58.5911,98.4900
58.6268,98.5600
58.6805,98.6654
58.7962,98.8246
58.9354,98.9638
59.0946,99.0795
59.1775,99.1217
59.2700,99.1689
59.2700,99.1689
59.2700,99.1689
59.3498,99.1948
59.4572,99.2297
59.6516,99.2605
59.6516,99.2605
59.8484,99.2605
60.0428,99.2297
60.2300,99.1689
60.4054,99.0795
60.5646,98.9638
60.7038,98.8246
60.8195,98.6654
60.9089,98.4900
60.9697,98.3028
61.0005,98.1084
61.0005,97.3916
60.9697,97.1972
60.9089,97.0100
60.8209,96.8372
60.8195,96.8346
60.7038,96.6754
60.5646,96.5362
60.4054,96.4205
60.3599,96.3973
60.2300,96.3311
60.0428,96.2703
59.8484,96.2395
59.8484,96.2395
59.6516,96.2395
59.6516,96.2395
59.4572,96.2703
59.2700,96.3311
59.0946,96.4205
59.0157,96.4778
58.9354,96.5362
58.9354,96.5362
58.9354,96.5362
58.7962,96.6754
58.7962,96.6754
58.7962,96.6754
58.7961,96.6755
58.6805,96.8346
58.5911,97.0100
58.5303,97.1972
58.4995,97.3916
58.0005,97.3916
58.0005,96.9400
57.9900,96.8372
57.9348,96.6707
57.9168,96.6415
57.8427,96.5213
57.8427,96.5213
57.7187,96.3973
57.7187,96.3973
57.5693,96.3052
57.5693,96.3052
57.4640,96.2703
57.4028,96.2500
57.4028,96.2500
57.3000,96.2395
57.3000,96.2395
56.2000,96.2395
56.2000,96.2395
56.0972,96.2500
56.0972,96.2500
55.9307,96.3052
55.9307,96.3052
55.7813,96.3973
55.7813,96.3973
55.6573,96.5213
55.6573,96.5213
55.5652,96.6707
55.5652,96.6707
55.5100,96.8372
55.5100,96.8372
55.4995,96.9400
47.2500,96.9400
47.2500,95.7028
52.8645,95.7028
52.8645,95.8772
52.8985,96.0483
52.8985,96.0483
52.9653,96.2094
52.9653,96.2094
53.0622,96.3545
53.0622,96.3545
53.1855,96.4778
53.1855,96.4778
53.3306,96.5747
53.3306,96.5747
53.3306,96.5747
53.4917,96.6415
53.6385,96.6707
53.6628,96.6755
53.6628,96.6755
53.6628,96.6755
53.8372,96.6755
53.8372,96.6755
54.0083,96.6415
54.1694,96.5747
54.3145,96.4778
54.4378,96.3545
54.5347,96.2094
54.6015,96.0483
54.6355,95.8772
54.6355,95.7028
54.6355,95.7028
61.8645,95.7028
61.8645,95.8772
61.8985,96.0483
61.8985,96.0483
61.9653,96.2094
61.9653,96.2094
62.0622,96.3545
62.0622,96.3545
62.1855,96.4778
62.1855,96.4778
62.3306,96.5747
62.3306,96.5747
62.3306,96.5747
62.4917,96.6415
62.6385,96.6707
62.6628,96.6755
62.6628,96.6755
62.6628,96.6755
62.8372,96.6755
62.8372,96.6755
63.0083,96.6415
63.1694,96.5747
63.3145,96.4778
63.4378,96.3545
63.5347,96.2094
63.6015,96.0483
63.6355,95.8772
63.6355,95.7028
63.6015,95.5317
63.5347,95.3706
63.5347,95.3706
63.5347,95.3706
63.4378,95.2255
63.4378,95.2255
63.3145,95.1022
63.3145,95.1022
63.1694,95.0053
63.1694,95.0053
63.0083,94.9385
63.0083,94.9385
62.8372,94.9045
62.8372,94.9045
62.6628,94.9045
62.6628,94.9045
62.4917,94.9385
62.4917,94.9385
62.3306,95.0053
62.3306,95.0053
62.1855,95.1022
62.1855,95.1022
62.0622,95.2255
62.0622,95.2255
61.9653,95.3706
61.9653,95.3706
61.8985,95.5317
61.8985,95.5317
61.8645,95.7028
54.6355,95.7028
54.6015,95.5317
54.5347,95.3706
54.5347,95.3706
54.5347,95.3706
54.4378,95.2255
54.4378,95.2255
54.3145,95.1022
54.3145,95.1022
54.1694,95.0053
54.1694,95.0053
54.0083,94.9385
54.0083,94.9385
53.8372,94.9045
53.8372,94.9045
53.6628,94.9045
53.6628,94.9045
53.4917,94.9385
53.4917,94.9385
53.3306,95.0053
53.3306,95.0053
53.1855,95.1022
53.1855,95.1022
53.0622,95.2255
53.0622,95.2255
52.9653,95.3706
52.9653,95.3706
52.8985,95.5317
52.8985,95.5317
52.8645,95.7028
47.2500,95.7028
47.2500,80.9400
58.2495,80.9400
58.2495,82.5600
58.2600,82.6628
58.2600,82.6628
58.2876,82.7461
58.3152,82.8293
58.3152,82.8293
58.4073,82.9787
58.4073,82.9787
58.5313,83.1027
58.5313,83.1027
58.6807,83.1948
58.6807,83.1948
58.6807,83.1948
58.8472,83.2500
58.9500,83.2605
58.9500,83.2605
60.0500,83.2605
60.0500,83.2605
60.1528,83.2500
60.3193,83.1948
60.4687,83.1027
60.5927,82.9787
60.6848,82.8293
60.7400,82.6628
60.7505,82.5600
60.7505,81.3916
61.2495,81.3916
61.2495,82.1084
61.2803,82.3028
61.3411,82.4900
61.3768,82.5600
61.4305,82.6654
61.5462,82.8246
61.6854,82.9638
61.8446,83.0795
61.9275,83.1217
62.0200,83.1689
62.0200,83.1689
62.0200,83.1689
62.0998,83.1948
62.2072,83.2297
62.4016,83.2605
62.4016,83.2605
62.5984,83.2605
62.7928,83.2297
62.9800,83.1689
63.1554,83.0795
63.3146,82.9638
63.4538,82.8246
63.5695,82.6654
63.6589,82.4900
63.7197,82.3028
63.7505,82.1084
63.7505,81.3916
63.7197,81.1972
63.6589,81.0100
63.5709,80.8372
63.5695,80.8346
63.4538,80.6754
63.3146,80.5362
63.1554,80.4205
63.1099,80.3973
62.9800,80.3311
62.7928,80.2703
62.5984,80.2395
62.5984,80.2395
62.4016,80.2395
62.4016,80.2395
62.2072,80.2703
62.0200,80.3311
61.8446,80.4205
61.7657,80.4778
61.6854,80.5362
61.6854,80.5362
61.6854,80.5362
61.5462,80.6754
61.5462,80.6754
61.5462,80.6754
61.5461,80.6755
61.4305,80.8346
61.3411,81.0100
61.2803,81.1972
61.2495,81.3916
60.7505,81.3916
60.7505,80.9400
60.7400,80.8372
60.6848,80.6707
60.6668,80.6415
60.5927,80.5213
60.5927,80.5213
60.4687,80.3973
60.4687,80.3973
60.3193,80.3052
60.3193,80.3052
60.2140,80.2703
60.1528,80.2500
60.1528,80.2500
60.0500,80.2395
60.0500,80.2395
58.9500,80.2395
58.9500,80.2395
58.8472,80.2500
58.8472,80.2500
58.6807,80.3052
58.6807,80.3052
58.5313,80.3973
58.5313,80.3973
58.4073,80.5213
58.4073,80.5213
58.3152,80.6707
58.3152,80.6707
58.2600,80.8372
58.2600,80.8372
58.2495,80.9400
47.2500,80.9400
47.2500,79.7028
55.6145,79.7028
55.6145,79.8772
55.6485,80.0483
55.6485,80.0483
55.7153,80.2094
55.7153,80.2094
55.8122,80.3545
55.8122,80.3545
55.9355,80.4778
55.9355,80.4778
56.0806,80.5747
56.0806,80.5747
56.0806,80.5747
56.2417,80.6415
56.3885,80.6707
56.4128,80.6755
56.4128,80.6755
56.4128,80.6755
56.5872,80.6755
56.5872,80.6755
56.7583,80.6415
56.9194,80.5747
57.0645,80.4778
57.1878,80.3545
57.2847,80.2094
57.3515,80.0483
57.3855,79.8772
57.3855,79.7028
57.3855,79.7028
64.6145,79.7028
64.6145,79.8772
64.6485,80.0483
64.6485,80.0483
64.7153,80.2094
64.7153,80.2094
64.8122,80.3545
64.8122,80.3545
64.9355,80.4778
64.9355,80.4778
65.0806,80.5747
65.0806,80.5747
65.0806,80.5747
65.2417,80.6415
65.3885,80.6707
65.4128,80.6755
65.4128,80.6755
65.4128,80.6755
65.5872,80.6755
65.5872,80.6755
65.7583,80.6415
65.9194,80.5747
66.0645,80.4778
66.1878,80.3545
66.2847,80.2094
66.3515,80.0483
66.3855,79.8772
66.3855,79.7028
66.3515,79.5317
66.2847,79.3706
66.2847,79.3706
66.2847,79.3706
66.1878,79.2255
66.1878,79.2255
66.0645,79.1022
66.0645,79.1022
65.9194,79.0053
65.9194,79.0053
65.7583,78.9385
65.7583,78.9385
65.5872,78.9045
65.5872,78.9045
65.4128,78.9045
65.4128,78.9045
65.2417,78.9385
65.2417,78.9385
65.0806,79.0053
65.0806,79.0053
64.9355,79.1022
64.9355,79.1022
64.8122,79.2255
64.8122,79.2255
64.7153,79.3706
64.7153,79.3706
64.6485,79.5317
64.6485,79.5317
64.6145,79.7028
57.3855,79.7028
57.3515,79.5317
57.2847,79.3706
57.2847,79.3706
57.2847,79.3706
57.1878,79.2255
57.1878,79.2255
57.0645,79.1022
57.0645,79.1022
56.9194,79.0053
56.9194,79.0053
56.7583,78.9385
56.7583,78.9385
56.5872,78.9045
56.5872,78.9045
56.4128,78.9045
56.4128,78.9045
56.2417,78.9385
56.2417,78.9385
56.0806,79.0053
56.0806,79.0053
55.9355,79.1022
55.9355,79.1022
55.8122,79.2255
55.8122,79.2255
55.7153,79.3706
55.7153,79.3706
55.6485,79.5317
55.6485,79.5317
55.6145,79.7028
47.2500,79.7028
47.2500,62.1900
61.9995,62.1900
61.9995,63.8100
62.0100,63.9128
62.0100,63.9128
62.0123,63.9198
62.0652,64.0793
62.0652,64.0793
62.1573,64.2287
62.1573,64.2287
62.2813,64.3527
62.2813,64.3527
62.4307,64.4448
62.4307,64.4448
62.4307,64.4448
62.5972,64.5000
62.7000,64.5105
62.7000,64.5105
63.8000,64.5105
63.8000,64.5105
63.9028,64.5000
64.0693,64.4448
64.2187,64.3527
64.3427,64.2287
64.4348,64.0793
64.4900,63.9128
64.5005,63.8100
64.5005,62.6416
64.9995,62.6416
64.9995,63.3584
65.0303,63.5528
65.0911,63.7400
65.1791,63.9128
65.1805,63.9154
65.2962,64.0746
65.4354,64.2138
65.5946,64.3295
65.6775,64.3717
65.7700,64.4189
65.7700,64.4189
65.7700,64.4189
65.8498,64.4448
65.9572,64.4797
66.1516,64.5105
66.1516,64.5105
66.3484,64.5105
66.5428,64.4797
66.7300,64.4189
66.9054,64.3295
67.0646,64.2138
67.2038,64.0746
67.3195,63.9154
67.3618,63.8324
82.4195,63.8324
82.4195,65.3276
82.4258,65.4181
82.4258,65.4181
82.4757,65.6302
82.4757,65.6302
82.4757,65.6302
82.5637,65.8295
82.6359,65.9349
82.6868,66.0092
82.6868,66.0092
82.8408,66.1632
82.8408,66.1632
83.0205,66.2863
83.2198,66.3743
83.2198,66.3743
83.2198,66.3743
83.4319,66.4242
83.4319,66.4242
83.4319,66.4242
83.4822,66.4277
83.5224,66.4305
83.5224,66.4305
85.0176,66.4305
85.0538,66.4280
85.1081,66.4242
85.1081,66.4242
85.1081,66.4242
85.3202,66.3743
85.3202,66.3743
85.3202,66.3743
85.5195,66.2863
85.6992,66.1632
85.8532,66.0092
85.9763,65.8295
86.0643,65.6302
86.1142,65.4181
86.1205,65.3276
86.1205,63.8324
86.1205,63.8324
89.1795,63.8324
89.1795,65.3276
89.1858,65.4181
89.1858,65.4181
89.2357,65.6302
89.2357,65.6302
89.2357,65.6302
89.3237,65.8295
89.3959,65.9349
89.4468,66.0092
89.4468,66.0092
89.6008,66.1632
89.6008,66.1632
89.7805,66.2863
89.9798,66.3743
89.9798,66.3743
89.9798,66.3743
90.1919,66.4242
90.1919,66.4242
90.1919,66.4242
90.2422,66.4277
90.2824,66.4305
90.2824,66.4305
91.7776,66.4305
91.8138,66.4280
91.8681,66.4242
91.8681,66.4242
91.8681,66.4242
92.0802,66.3743
92.0802,66.3743
92.0802,66.3743
92.2795,66.2863
92.4592,66.1632
92.6132,66.0092
92.7363,65.8295
92.8243,65.6302
92.8742,65.4181
92.8805,65.3276
92.8805,64.4588
96.4600,64.4588
96.4600,64.7012
96.4600,64.7013
96.4917,64.9417
96.5544,65.1759
96.6472,65.4000
96.6472,65.4000
96.7685,65.6100
96.8371,65.6994
97.5559,64.9806
97.5567,64.9826
97.6498,65.1218
97.7682,65.2402
97.9074,65.3333
97.9094,65.3341
97.1906,66.0529
97.1906,66.0529
97.2800,66.1215
97.2800,66.1215
97.4900,66.2428
97.4900,66.2428
97.7141,66.3356
97.9483,66.3983
98.1887,66.4300
98.1888,66.4300
98.4312,66.4300
98.4313,66.4300
98.6717,66.3983
98.9059,66.3356
99.1300,66.2428
99.1300,66.2428
99.3400,66.1215
99.4294,66.0529
99.4294,66.0529
98.7106,65.3341
98.7126,65.3333
98.8518,65.2402
98.9702,65.1218
99.0633,64.9826
99.0641,64.9806
99.7829,65.6994
99.7829,65.6994
99.8515,65.6100
99.9728,65.4000
99.9728,65.4000
100.0656,65.1759
100.1283,64.9417
100.1600,64.7013
100.1600,64.7012
100.1600,64.4588
103.2200,64.4588
103.2200,64.7012
103.2200,64.7013
103.2517,64.9417
103.3144,65.1759
103.4072,65.4000
103.4072,65.4000
103.5285,65.6100
103.5971,65.6994
104.3159,64.9806
104.3167,64.9826
104.4098,65.1218
104.5282,65.2402
104.6674,65.3333
104.6694,65.3341
103.9506,66.0529
103.9506,66.0529
104.0400,66.1215
104.0400,66.1215
104.2500,66.2428
104.2500,66.2428
104.4741,66.3356
104.7083,66.3983
104.9487,66.4300
104.9488,66.4300
105.1912,66.4300
105.1913,66.4300
105.4317,66.3983
105.6659,66.3356
105.8900,66.2428
105.8900,66.2428
106.1000,66.1215
106.1894,66.0529
106.1894,66.0529
105.4706,65.3341
105.4726,65.3333
105.6118,65.2402
105.7302,65.1218
105.8233,64.9826
105.8241,64.9806
106.5429,65.6994
106.5429,65.6994
106.6115,65.6100
106.7328,65.4000
106.7328,65.4000
106.8256,65.1759
106.8883,64.9417
106.9200,64.7013
106.9200,64.7012
106.9200,64.4588
106.9200,64.4587
106.8883,64.2183
106.8256,63.9841
106.7328,63.7600
106.7328,63.7600
106.6115,63.5500
106.6115,63.5500
106.5429,63.4606
106.5429,63.4606
105.8241,64.1794
105.8233,64.1774
105.7302,64.0382
105.6118,63.9198
105.4726,63.8267
105.4706,63.8259
106.1894,63.1071
106.1000,63.0385
105.8900,62.9172
105.8900,62.9172
105.6659,62.8244
105.4317,62.7617
105.1913,62.7300
105.1912,62.7300
104.9488,62.7300
104.9487,62.7300
104.7083,62.7617
104.4741,62.8244
104.2500,62.9172
104.2500,62.9172
104.0400,63.0385
103.9506,63.1071
103.9506,63.1071
104.6694,63.8259
104.6674,63.8267
104.5282,63.9198
104.4098,64.0382
104.3167,64.1774
104.3159,64.1794
103.5971,63.4606
103.5971,63.4606
103.5285,63.5500
103.4072,63.7600
103.4072,63.7600
103.3144,63.9841
103.2517,64.2183
103.2200,64.4587
103.2200,64.4588
100.1600,64.4588
100.1600,64.4587
100.1283,64.2183
100.0656,63.9841
99.9728,63.7600
99.9728,63.7600
99.8515,63.5500
99.8515,63.5500
99.7829,63.4606
99.7829,63.4606
99.0641,64.1794
99.0633,64.1774
98.9702,64.0382
98.8518,63.9198
98.7126,63.8267
98.7106,63.8259
99.4294,63.1071
99.3400,63.0385
99.1300,62.9172
99.1300,62.9172
98.9059,62.8244
98.6717,62.7617
98.4313,62.7300
98.4312,62.7300
98.1888,62.7300
98.1887,62.7300
97.9483,62.7617
97.7141,62.8244
97.4900,62.9172
97.4900,62.9172
97.2800,63.0385
97.1906,63.1071
97.1906,63.1071
97.9094,63.8259
97.9074,63.8267
97.7682,63.9198
97.6498,64.0382
97.5567,64.1774
97.5559,64.1794
96.8371,63.4606
96.8371,63.4606
96.7685,63.5500
96.6472,63.7600
96.6472,63.7600
96.5544,63.9841
96.4917,64.2183
96.4600,64.4587
96.4600,64.4588
92.8805,64.4588
92.8805,63.8324
92.8789,63.8100
92.8755,63.7600
92.8742,63.7419
92.8742,63.7419
92.8742,63.7419
92.8243,63.5298
92.8243,63.5298
92.8243,63.5298
92.7363,63.3305
92.6132,63.1508
92.6132,63.1508
92.4592,62.9968
92.4592,62.9968
92.4266,62.9745
92.2795,62.8737
92.0802,62.7857
92.0802,62.7857
92.0802,62.7857
91.8681,62.7358
91.8681,62.7358
91.7776,62.7295
91.7776,62.7295
90.2824,62.7295
90.2824,62.7295
90.1919,62.7358
90.1919,62.7358
89.9798,62.7857
89.9798,62.7857
89.7805,62.8737
89.7805,62.8737
89.7805,62.8737
89.7170,62.9172
89.6008,62.9968
89.6008,62.9968
89.4468,63.1508
89.4468,63.1508
89.3760,63.2541
89.3237,63.3305
89.3237,63.3305
89.3237,63.3305
89.2357,63.5298
89.2357,63.5298
89.1858,63.7419
89.1858,63.7419
89.1795,63.8324
86.1205,63.8324
86.1189,63.8100
86.1155,63.7600
86.1142,63.7419
86.1142,63.7419
86.1142,63.7419
86.0643,63.5298
86.0643,63.5298
86.0643,63.5298
85.9763,63.3305
85.8532,63.1508
85.8532,63.1508
85.6992,62.9968
85.6992,62.9968
85.6666,62.9745
85.5195,62.8737
85.3202,62.7857
85.3202,62.7857
85.3202,62.7857
85.1081,62.7358
85.1081,62.7358
85.0176,62.7295
85.0176,62.7295
83.5224,62.7295
83.5224,62.7295
83.4319,62.7358
83.4319,62.7358
83.2198,62.7857
83.2198,62.7857
83.0206,62.8737
83.0205,62.8737
83.0205,62.8737
82.9570,62.9172
82.8408,62.9968
82.8408,62.9968
82.6868,63.1508
82.6868,63.1508
82.6160,63.2541
82.5637,63.3305
82.5637,63.3305
82.5637,63.3305
82.4757,63.5298
82.4757,63.5298
82.4258,63.7419
82.4258,63.7419
82.4195,63.8324
67.3618,63.8324
67.4089,63.7400
67.4697,63.5528
67.4843,63.4606
67.5005,63.3584
67.5005,62.6416
67.4697,62.4472
67.4089,62.2600
67.3209,62.0872
67.3195,62.0846
67.2038,61.9254
67.0646,61.7862
66.9054,61.6705
66.8599,61.6473
66.7300,61.5811
66.5428,61.5203
66.3484,61.4895
66.3484,61.4895
66.1516,61.4895
66.1516,61.4895
65.9572,61.5203
65.7700,61.5811
65.5946,61.6705
65.5157,61.7278
65.4354,61.7862
65.4354,61.7862
65.4354,61.7862
65.2962,61.9254
65.2962,61.9254
65.2962,61.9254
65.2961,61.9255
65.1805,62.0846
65.0911,62.2600
65.0303,62.4472
64.9995,62.6416
64.5005,62.6416
64.5005,62.1900
64.4900,62.0872
64.4348,61.9207
64.4168,61.8915
64.3427,61.7713
64.3427,61.7713
64.2187,61.6473
64.2187,61.6473
64.0693,61.5552
64.0693,61.5552
63.9640,61.5203
63.9028,61.5000
63.9028,61.5000
63.8000,61.4895
63.8000,61.4895
62.7000,61.4895
62.7000,61.4895
62.5972,61.5000
62.5972,61.5000
62.4307,61.5552
62.4307,61.5552
62.2813,61.6473
62.2813,61.6473
62.1573,61.7713
62.1573,61.7713
62.0652,61.9207
62.0652,61.9207
62.0100,62.0872
62.0100,62.0872
61.9995,62.1900
47.2500,62.1900
47.2500,60.9528
59.3645,60.9528
59.3645,61.1272
59.3985,61.2983
59.3985,61.2983
59.4653,61.4594
59.4653,61.4594
59.5622,61.6045
59.5622,61.6045
59.6855,61.7278
59.6855,61.7278
59.8306,61.8247
59.8306,61.8247
59.8306,61.8247
59.9917,61.8915
60.1385,61.9207
60.1628,61.9255
60.1628,61.9255
60.1628,61.9255
60.3372,61.9255
60.3372,61.9255
60.5083,61.8915
60.6694,61.8247
60.8145,61.7278
60.9378,61.6045
61.0347,61.4594
61.1015,61.2983
61.1355,61.1272
61.1355,60.9528
61.1355,60.9528
68.3645,60.9528
68.3645,61.1272
68.3985,61.2983
68.3985,61.2983
68.4653,61.4594
68.4653,61.4594
68.5622,61.6045
68.5622,61.6045
68.6855,61.7278
68.6855,61.7278
68.8306,61.8247
68.8306,61.8247
68.8306,61.8247
68.9917,61.8915
69.1385,61.9207
69.1628,61.9255
69.1628,61.9255
69.1628,61.9255
69.3372,61.9255
69.3372,61.9255
69.5083,61.8915
69.6694,61.8247
69.8145,61.7278
69.9378,61.6045
70.0347,61.4594
70.1015,61.2983
70.1355,61.1272
70.1355,60.9528
70.1015,60.7817
70.0347,60.6206
70.0347,60.6206
70.0347,60.6206
69.9378,60.4755
69.9378,60.4755
69.8145,60.3522
69.8145,60.3522
69.6694,60.2553
69.6694,60.2553
69.5083,60.1885
69.5083,60.1885
69.3372,60.1545
69.3372,60.1545
69.1628,60.1545
69.1628,60.1545
68.9917,60.1885
68.9917,60.1885
68.8306,60.2553
68.8306,60.2553
68.6855,60.3522
68.6855,60.3522
68.5622,60.4755
68.5622,60.4755
68.4653,60.6206
68.4653,60.6206
68.3985,60.7817
68.3985,60.7817
68.3645,60.9528
61.1355,60.9528
61.1015,60.7817
61.0347,60.6206
61.0347,60.6206
61.0347,60.6206
60.9378,60.4755
60.9378,60.4755
60.8145,60.3522
60.8145,60.3522
60.6694,60.2553
60.6694,60.2553
60.5083,60.1885
60.5083,60.1885
60.3372,60.1545
60.3372,60.1545
60.1628,60.1545
60.1628,60.1545
59.9917,60.1885
59.9917,60.1885
59.8306,60.2553
59.8306,60.2553
59.6855,60.3522
59.6855,60.3522
59.5622,60.4755
59.5622,60.4755
59.4653,60.6206
59.4653,60.6206
59.3985,60.7817
59.3985,60.7817
59.3645,60.9528
47.2500,60.9528
47.2500,51.8740
47.2697,51.8070
47.3225,51.7612
47.3740,51.7500
119.1260,51.7500
Z" /> 
<path style="fill:#4D7FC4; fill-opacity:1.0000; stroke:none;fill-rule:evenodd;"
d="M 82.9200,63.9050
82.9311,63.7833
82.9795,63.6280
83.0637,63.4887
83.1787,63.3737
83.3180,63.2895
83.4733,63.2411
83.5950,63.2300
84.9450,63.2300
85.0667,63.2411
85.2220,63.2895
85.3613,63.3737
85.4763,63.4887
85.5605,63.6280
85.6089,63.7833
85.6200,63.9050
85.6200,65.2550
85.6089,65.3767
85.5605,65.5320
85.4763,65.6713
85.3613,65.7863
85.2220,65.8705
85.0667,65.9189
84.9450,65.9300
83.5950,65.9300
83.4733,65.9189
83.3180,65.8705
83.1787,65.7863
83.0637,65.6713
82.9795,65.5320
82.9311,65.3767
82.9200,65.2550
Z" /> 
<path style="fill:#4D7FC4; fill-opacity:1.0000; stroke:none;fill-rule:evenodd;"
d="M 89.6800,63.9050
89.6911,63.7833
89.7395,63.6280
89.8237,63.4887
89.9387,63.3737
90.0780,63.2895
90.2333,63.2411
90.3550,63.2300
91.7050,63.2300
91.8267,63.2411
91.9820,63.2895
92.1213,63.3737
92.2363,63.4887
92.3205,63.6280
92.3689,63.7833
92.3800,63.9050
92.3800,65.2550
92.3689,65.3767
92.3205,65.5320
92.2363,65.6713
92.1213,65.7863
91.9820,65.8705
91.8267,65.9189
91.7050,65.9300
90.3550,65.9300
90.2333,65.9189
90.0780,65.8705
89.9387,65.7863
89.8237,65.6713
89.7395,65.5320
89.6911,65.3767
89.6800,65.2550
Z" /> 
</g>
<g style="fill:#4D7FC4; fill-opacity:1.0000; stroke:none;">
<circle cx="98.3100" cy="64.5800" r="1.3500" /> 
</g>
<g style="fill:#4D7FC4; fill-opacity:1.0000; stroke:none;">
<circle cx="105.0700" cy="64.5800" r="1.3500" /> 
<path style="fill:#4D7FC4; fill-opacity:1.0000; stroke:none;fill-rule:evenodd;"
d="M 62.5000,62.2400
62.5190,62.1443
62.5732,62.0632
62.6543,62.0090
62.7500,61.9900
63.7500,61.9900
63.8457,62.0090
63.9268,62.0632
63.9810,62.1443
64.0000,62.2400
64.0000,63.7600
63.9810,63.8557
63.9268,63.9368
63.8457,63.9910
63.7500,64.0100
62.7500,64.0100
62.6543,63.9910
62.5732,63.9368
62.5190,63.8557
62.5000,63.7600
Z" /> 
</g>
<g style="fill:none; 
stroke:#4D7FC4; stroke-width:1.5000; stroke-opacity:1; 
stroke-linecap:round; stroke-linejoin:round;">
<path d="M66.2500 62.7400
L66.2500 63.2600
" />
<path style="fill:#4D7FC4; fill-opacity:1.0000; stroke:none;fill-rule:evenodd;"
d="M 58.7500,80.9900
58.7690,80.8943
58.8232,80.8132
58.9043,80.7590
59.0000,80.7400
60.0000,80.7400
60.0957,80.7590
60.1768,80.8132
60.2310,80.8943
60.2500,80.9900
60.2500,82.5100
60.2310,82.6057
60.1768,82.6868
60.0957,82.7410
60.0000,82.7600
59.0000,82.7600
58.9043,82.7410
58.8232,82.6868
58.7690,82.6057
58.7500,82.5100
Z" /> 
</g>
<g style="fill:none; 
stroke:#4D7FC4; stroke-width:1.5000; stroke-opacity:1; 
stroke-linecap:round; stroke-linejoin:round;">
<path d="M62.5000 81.4900
L62.5000 82.0100
" />
<path style="fill:#4D7FC4; fill-opacity:1.0000; stroke:none;fill-rule:evenodd;"
d="M 56.0000,96.9900
56.0190,96.8943
56.0732,96.8132
56.1543,96.7590
56.2500,96.7400
57.2500,96.7400
57.3457,96.7590
57.4268,96.8132
57.4810,96.8943
57.5000,96.9900
57.5000,98.5100
57.4810,98.6057
57.4268,98.6868
57.3457,98.7410
57.2500,98.7600
56.2500,98.7600
56.1543,98.7410
56.0732,98.6868
56.0190,98.6057
56.0000,98.5100
Z" /> 
</g>
<g style="fill:none; 
stroke:#4D7FC4; stroke-width:1.5000; stroke-opacity:1; 
stroke-linecap:round; stroke-linejoin:round;">
<path d="M59.7500 97.4900
L59.7500 98.0100
" />
</g>
<g style="fill:none; 
stroke:#F2EDA1; stroke-width:0.1500; stroke-opacity:1; 
stroke-linecap:round; stroke-linejoin:round;">
<text x="94.6700" y="60.5800"
textLength="2.0595" font-size="1.3333" lengthAdjust="spacingAndGlyphs"
text-anchor="middle" opacity="0" stroke-opacity="0">F1</text>
<g class="stroked-text"><desc>F1</desc>
<path d="M94.3367 60.0110
L94.0033 60.0110
" />
<path d="M94.0033 60.5348
L94.0033 59.5348
" />
<path d="M94.0033 59.5348
L94.4795 59.5348
" />
<path d="M95.3843 60.5348
L94.8129 60.5348
" />
<path d="M95.0986 60.5348
L95.0986 59.5348
" />
<path d="M95.0986 59.5348
L95.0033 59.6777
" />
<path d="M95.0033 59.6777
L94.9081 59.7729
" />
<path d="M94.9081 59.7729
L94.8129 59.8205
" />
</g><text x="64.7500" y="59.8300"
textLength="1.9643" font-size="1.3333" lengthAdjust="spacingAndGlyphs"
text-anchor="middle" opacity="0" stroke-opacity="0">J1</text>
<g class="stroked-text"><desc>J1</desc>
<path d="M64.4167 58.7848
L64.4167 59.4991
" />
<path d="M64.4167 59.4991
L64.3690 59.6420
" />
<path d="M64.3690 59.6420
L64.2738 59.7372
" />
<path d="M64.2738 59.7372
L64.1310 59.7848
" />
<path d="M64.1310 59.7848
L64.0357 59.7848
" />
<path d="M65.4167 59.7848
L64.8452 59.7848
" />
<path d="M65.1310 59.7848
L65.1310 58.7848
" />
<path d="M65.1310 58.7848
L65.0357 58.9277
" />
<path d="M65.0357 58.9277
L64.9405 59.0229
" />
<path d="M64.9405 59.0229
L64.8452 59.0705
" />
</g><text x="61.0000" y="78.5800"
textLength="1.9643" font-size="1.3333" lengthAdjust="spacingAndGlyphs"
text-anchor="middle" opacity="0" stroke-opacity="0">J2</text>
<g class="stroked-text"><desc>J2</desc>
<path d="M60.6667 77.5348
L60.6667 78.2491
" />
<path d="M60.6667 78.2491
L60.6190 78.3920
" />
<path d="M60.6190 78.3920
L60.5238 78.4872
" />
<path d="M60.5238 78.4872
L60.3810 78.5348
" />
<path d="M60.3810 78.5348
L60.2857 78.5348
" />
<path d="M61.0952 77.6301
L61.1429 77.5824
" />
<path d="M61.1429 77.5824
L61.2381 77.5348
" />
<path d="M61.2381 77.5348
L61.4762 77.5348
" />
<path d="M61.4762 77.5348
L61.5714 77.5824
" />
<path d="M61.5714 77.5824
L61.6190 77.6301
" />
<path d="M61.6190 77.6301
L61.6667 77.7253
" />
<path d="M61.6667 77.7253
L61.6667 77.8205
" />
<path d="M61.6667 77.8205
L61.6190 77.9634
" />
<path d="M61.6190 77.9634
L61.0476 78.5348
" />
<path d="M61.0476 78.5348
L61.6667 78.5348
" />
</g><text x="58.2500" y="94.5800"
textLength="1.9643" font-size="1.3333" lengthAdjust="spacingAndGlyphs"
text-anchor="middle" opacity="0" stroke-opacity="0">J3</text>
<g class="stroked-text"><desc>J3</desc>
<path d="M57.9167 93.5348
L57.9167 94.2491
" />
<path d="M57.9167 94.2491
L57.8690 94.3920
" />
<path d="M57.8690 94.3920
L57.7738 94.4872
" />
<path d="M57.7738 94.4872
L57.6310 94.5348
" />
<path d="M57.6310 94.5348
L57.5357 94.5348
" />
<path d="M58.2976 93.5348
L58.9167 93.5348
" />
<path d="M58.9167 93.5348
L58.5833 93.9158
" />
<path d="M58.5833 93.9158
L58.7262 93.9158
" />
<path d="M58.7262 93.9158
L58.8214 93.9634
" />
<path d="M58.8214 93.9634
L58.8690 94.0110
" />
<path d="M58.8690 94.0110
L58.9167 94.1062
" />
<path d="M58.9167 94.1062
L58.9167 94.3443
" />
<path d="M58.9167 94.3443
L58.8690 94.4396
" />
<path d="M58.8690 94.4396
L58.8214 94.4872
" />
<path d="M58.8214 94.4872
L58.7262 94.5348
" />
<path d="M58.7262 94.5348
L58.4405 94.5348
" />
<path d="M58.4405 94.5348
L58.3452 94.4872
" />
<path d="M58.3452 94.4872
L58.2976 94.4396
" />
</g></g>
<g style="fill:none; 
stroke:#F2EDA1; stroke-width:0.1200; stroke-opacity:1; 
stroke-linecap:round; stroke-linejoin:round;">
<path d="M84.5000 61.3800
L84.5000 62.9800
" />
<path d="M84.5000 67.7800
L84.5000 66.1800
" />
<path d="M90.8000 61.3800
L84.5000 61.3800
" />
<path d="M90.8000 61.3800
L90.8000 62.9800
" />
<path d="M90.8000 67.7800
L84.5000 67.7800
" />
<path d="M90.8000 67.7800
L90.8000 66.1800
" />
<path d="M98.5400 61.3800
L98.5400 62.9800
" />
<path d="M98.5400 62.0800
L90.8000 62.0800
" />
<path d="M98.5400 67.0800
L90.8000 67.0800
" />
<path d="M98.5400 67.7800
L98.5400 66.1800
" />
<path d="M98.5400 67.7800
L104.8400 67.7800
" />
<path d="M104.8400 61.3800
L98.5400 61.3800
" />
<path d="M104.8400 62.9800
L104.8400 61.3800
" />
<path d="M104.8400 66.1800
L104.8400 67.7800
" />
<path d="M59.8150 61.9350
L59.8150 65.0100
" />
<path d="M59.8150 65.0100
L69.6850 65.0100
" />
<path d="M61.2350 60.4200
L61.2350 60.9200
" />
<path d="M61.2350 60.9200
L68.2650 60.9200
" />
<path d="M61.2550 60.4200
L61.2350 60.4200
" />
<path d="M68.2650 60.4200
L68.2450 60.4200
" />
<path d="M68.2650 60.9200
L68.2650 60.4200
" />
<path d="M69.6850 65.0100
L69.6850 61.9350
" />
<path d="M56.0650 80.6850
L56.0650 83.7600
" />
<path d="M56.0650 83.7600
L65.9350 83.7600
" />
<path d="M57.4850 79.1700
L57.4850 79.6700
" />
<path d="M57.4850 79.6700
L64.5150 79.6700
" />
<path d="M57.5050 79.1700
L57.4850 79.1700
" />
<path d="M64.5150 79.1700
L64.4950 79.1700
" />
<path d="M64.5150 79.6700
L64.5150 79.1700
" />
<path d="M65.9350 83.7600
L65.9350 80.6850
" />
<path d="M53.3150 96.6850
L53.3150 99.7600
" />
<path d="M53.3150 99.7600
L63.1850 99.7600
" />
<path d="M54.7350 95.1700
L54.7350 95.6700
" />
<path d="M54.7350 95.6700
L61.7650 95.6700
" />
<path d="M54.7550 95.1700
L54.7350 95.1700
" />
<path d="M61.7650 95.1700
L61.7450 95.1700
" />
<path d="M61.7650 95.6700
L61.7650 95.1700
" />
<path d="M63.1850 99.7600
L63.1850 96.6850
" />
</g>
<g style="fill:#FFFFFF; fill-opacity:1.0000; stroke:none;">
<circle cx="84.2700" cy="64.5800" r="0.8500" /> 
</g>
<g style="fill:#FFFFFF; fill-opacity:1.0000; stroke:none;">
<circle cx="91.0300" cy="64.5800" r="0.8500" /> 
</g>
<g style="fill:#FFFFFF; fill-opacity:1.0000; stroke:none;">
<circle cx="98.3100" cy="64.5800" r="0.8500" /> 
</g>
<g style="fill:#FFFFFF; fill-opacity:1.0000; stroke:none;">
<circle cx="105.0700" cy="64.5800" r="0.8500" /> 
</g>
<g style="fill:#FFFFFF; fill-opacity:1.0000; stroke:none;">
<circle cx="60.2500" cy="61.0400" r="0.6350" /> 
</g>
<g style="fill:#FFFFFF; fill-opacity:1.0000; stroke:none;">
<circle cx="69.2500" cy="61.0400" r="0.6350" /> 
</g>
<g style="fill:#FFFFFF; fill-opacity:1.0000; stroke:none;">
<circle cx="63.2500" cy="63.0000" r="0.5100" /> 
</g>
<g style="fill:#FFFFFF; fill-opacity:1.0000; stroke:none;">
<circle cx="66.2500" cy="63.0000" r="0.5100" /> 
</g>
<g style="fill:#FFFFFF; fill-opacity:1.0000; stroke:none;">
<circle cx="56.5000" cy="79.7900" r="0.6350" /> 
</g>
<g style="fill:#FFFFFF; fill-opacity:1.0000; stroke:none;">
<circle cx="65.5000" cy="79.7900" r="0.6350" /> 
</g>
<g style="fill:#FFFFFF; fill-opacity:1.0000; stroke:none;">
<circle cx="59.5000" cy="81.7500" r="0.5100" /> 
</g>
<g style="fill:#FFFFFF; fill-opacity:1.0000; stroke:none;">
<circle cx="62.5000" cy="81.7500" r="0.5100" /> 
</g>
<g style="fill:#FFFFFF; fill-opacity:1.0000; stroke:none;">
<circle cx="53.7500" cy="95.7900" r="0.6350" /> 
</g>
<g style="fill:#FFFFFF; fill-opacity:1.0000; stroke:none;">
<circle cx="62.7500" cy="95.7900" r="0.6350" /> 
</g>
<g style="fill:#FFFFFF; fill-opacity:1.0000; stroke:none;">
<circle cx="56.7500" cy="97.7500" r="0.5100" /> 
</g>
<g style="fill:#FFFFFF; fill-opacity:1.0000; stroke:none;">
<circle cx="59.7500" cy="97.7500" r="0.5100" /> 
</g> 
</svg>
